<svg width="407" height="292" viewBox="0 0 407 292" fill="none" xmlns="http://www.w3.org/2000/svg">
<path d="M3.311 102.5V74.464H12.9C14.8493 74.464 16.598 74.679 18.146 75.109C19.694 75.5103 20.9267 76.2127 21.844 77.216C22.7613 78.2193 23.22 79.624 23.22 81.43C23.22 82.6627 22.8903 83.881 22.231 85.085C21.6003 86.2603 20.7117 87.063 19.565 87.493V87.665C20.9983 88.0377 22.188 88.7687 23.134 89.858C24.1087 90.9187 24.596 92.3807 24.596 94.244C24.596 96.1647 24.1087 97.727 23.134 98.931C22.1593 100.135 20.855 101.038 19.221 101.64C17.587 102.213 15.7523 102.5 13.717 102.5H3.311ZM9.632 85.687H12.599C14.147 85.687 15.265 85.386 15.953 84.784C16.6697 84.182 17.028 83.3793 17.028 82.376C17.028 81.2867 16.6697 80.5127 15.953 80.054C15.2363 79.5953 14.1327 79.366 12.642 79.366H9.632V85.687ZM9.632 97.598H13.201C16.6697 97.598 18.404 96.3367 18.404 93.814C18.404 92.5813 17.974 91.707 17.114 91.191C16.254 90.6463 14.9497 90.374 13.201 90.374H9.632V97.598ZM38.3762 103.016C36.3408 103.016 34.5062 102.572 32.8722 101.683C31.2382 100.794 29.9482 99.5187 29.0022 97.856C28.0562 96.1933 27.5832 94.1867 27.5832 91.836C27.5832 89.514 28.0562 87.5217 29.0022 85.859C29.9768 84.1963 31.2382 82.9207 32.7862 82.032C34.3342 81.1147 35.9538 80.656 37.6452 80.656C39.6805 80.656 41.3575 81.1147 42.6762 82.032C44.0235 82.9207 45.0268 84.139 45.6862 85.687C46.3742 87.2063 46.7182 88.9407 46.7182 90.89C46.7182 91.4347 46.6895 91.9793 46.6322 92.524C46.5748 93.04 46.5175 93.427 46.4602 93.685H33.6892C33.9758 95.233 34.6208 96.3797 35.6242 97.125C36.6275 97.8417 37.8315 98.2 39.2362 98.2C40.7555 98.2 42.2892 97.727 43.8372 96.781L45.9442 100.608C44.8548 101.353 43.6365 101.941 42.2892 102.371C40.9418 102.801 39.6375 103.016 38.3762 103.016ZM33.6462 89.514H41.3432C41.3432 88.3387 41.0565 87.3783 40.4832 86.633C39.9385 85.859 39.0355 85.472 37.7742 85.472C36.7995 85.472 35.9252 85.816 35.1512 86.504C34.3772 87.1633 33.8755 88.1667 33.6462 89.514ZM57.364 103.016C55.9593 103.016 54.5117 102.744 53.021 102.199C51.559 101.654 50.2833 100.938 49.194 100.049L52.032 96.093C53.0067 96.8097 53.9383 97.3687 54.827 97.77C55.7443 98.1427 56.6473 98.329 57.536 98.329C58.482 98.329 59.17 98.1713 59.6 97.856C60.03 97.512 60.245 97.0677 60.245 96.523C60.245 96.0357 60.03 95.6343 59.6 95.319C59.1987 95.0037 58.6683 94.717 58.009 94.459C57.3497 94.1723 56.6473 93.8857 55.902 93.599C55.042 93.255 54.182 92.825 53.322 92.309C52.4907 91.793 51.7883 91.1337 51.215 90.331C50.6417 89.4997 50.355 88.4963 50.355 87.321C50.355 85.343 51.1003 83.7377 52.591 82.505C54.1103 81.2723 56.0883 80.656 58.525 80.656C60.159 80.656 61.5923 80.9427 62.825 81.516C64.0864 82.0607 65.1614 82.677 66.05 83.365L63.212 87.149C62.4667 86.5757 61.7213 86.1313 60.976 85.816C60.2307 85.5007 59.4853 85.343 58.74 85.343C57.106 85.343 56.289 85.902 56.289 87.02C56.289 87.708 56.6903 88.2383 57.493 88.611C58.3243 88.955 59.2847 89.3277 60.374 89.729C61.2913 90.0443 62.18 90.46 63.04 90.976C63.9287 91.4633 64.6597 92.1227 65.233 92.954C65.835 93.7567 66.136 94.8173 66.136 96.136C66.136 98.0567 65.3907 99.6907 63.9 101.038C62.4093 102.357 60.2307 103.016 57.364 103.016ZM77.5236 103.016C74.8863 103.016 72.9943 102.256 71.8476 100.737C70.7296 99.2177 70.1706 97.2253 70.1706 94.76V86.117H67.2466V81.43L70.5146 81.172L71.2456 75.496H76.4916V81.172H81.6086V86.117H76.4916V94.674C76.4916 95.878 76.7353 96.7523 77.2226 97.297C77.7386 97.813 78.4123 98.071 79.2436 98.071C79.5876 98.071 79.9316 98.028 80.2756 97.942C80.6483 97.856 80.978 97.7557 81.2646 97.641L82.2536 102.242C81.709 102.414 81.0353 102.586 80.2326 102.758C79.4586 102.93 78.5556 103.016 77.5236 103.016ZM101.991 103.016C99.3536 103.016 97.2323 102.027 95.627 100.049C94.0503 98.0423 93.262 95.3047 93.262 91.836C93.262 89.514 93.6776 87.5217 94.509 85.859C95.369 84.1677 96.4726 82.8777 97.82 81.989C99.196 81.1003 100.629 80.656 102.12 80.656C103.295 80.656 104.284 80.8567 105.087 81.258C105.89 81.6593 106.649 82.204 107.366 82.892L107.108 79.624V72.357H113.429V102.5H108.269L107.839 100.393H107.667C106.922 101.138 106.047 101.769 105.044 102.285C104.041 102.772 103.023 103.016 101.991 103.016ZM103.625 97.856C104.313 97.856 104.929 97.7127 105.474 97.426C106.047 97.1393 106.592 96.6377 107.108 95.921V87.192C106.563 86.676 105.976 86.3177 105.345 86.117C104.743 85.9163 104.155 85.816 103.582 85.816C102.579 85.816 101.69 86.3033 100.916 87.278C100.142 88.224 99.755 89.7147 99.755 91.75C99.755 93.8427 100.085 95.3907 100.744 96.394C101.432 97.3687 102.392 97.856 103.625 97.856ZM128.575 103.016C126.54 103.016 124.705 102.572 123.071 101.683C121.437 100.794 120.147 99.5187 119.201 97.856C118.255 96.1933 117.782 94.1867 117.782 91.836C117.782 89.514 118.255 87.5217 119.201 85.859C120.176 84.1963 121.437 82.9207 122.985 82.032C124.533 81.1147 126.153 80.656 127.844 80.656C129.88 80.656 131.557 81.1147 132.875 82.032C134.223 82.9207 135.226 84.139 135.885 85.687C136.573 87.2063 136.917 88.9407 136.917 90.89C136.917 91.4347 136.889 91.9793 136.831 92.524C136.774 93.04 136.717 93.427 136.659 93.685H123.888C124.175 95.233 124.82 96.3797 125.823 97.125C126.827 97.8417 128.031 98.2 129.435 98.2C130.955 98.2 132.488 97.727 134.036 96.781L136.143 100.608C135.054 101.353 133.836 101.941 132.488 102.371C131.141 102.801 129.837 103.016 128.575 103.016ZM123.845 89.514H131.542C131.542 88.3387 131.256 87.3783 130.682 86.633C130.138 85.859 129.235 85.472 127.973 85.472C126.999 85.472 126.124 85.816 125.35 86.504C124.576 87.1633 124.075 88.1667 123.845 89.514ZM146.198 103.016C144.249 103.016 142.701 102.4 141.554 101.167C140.408 99.9057 139.834 98.372 139.834 96.566C139.834 94.33 140.78 92.5813 142.672 91.32C144.564 90.0587 147.617 89.213 151.831 88.783C151.774 87.837 151.487 87.0917 150.971 86.547C150.484 85.9737 149.653 85.687 148.477 85.687C147.589 85.687 146.686 85.859 145.768 86.203C144.851 86.547 143.876 87.02 142.844 87.622L140.565 83.451C141.913 82.6197 143.346 81.946 144.865 81.43C146.413 80.914 148.019 80.656 149.681 80.656C152.405 80.656 154.497 81.4443 155.959 83.021C157.421 84.5977 158.152 87.02 158.152 90.288V102.5H152.992L152.562 100.307H152.39C151.502 101.11 150.541 101.769 149.509 102.285C148.506 102.772 147.402 103.016 146.198 103.016ZM148.348 98.114C149.065 98.114 149.681 97.9563 150.197 97.641C150.742 97.297 151.287 96.8527 151.831 96.308V92.567C149.595 92.8537 148.047 93.3123 147.187 93.943C146.327 94.545 145.897 95.2617 145.897 96.093C145.897 96.781 146.112 97.297 146.542 97.641C147.001 97.9563 147.603 98.114 148.348 98.114ZM169.304 103.016C167.125 103.016 165.606 102.371 164.746 101.081C163.915 99.7623 163.499 98.028 163.499 95.878V72.357H169.82V96.136C169.82 96.7953 169.935 97.254 170.164 97.512C170.422 97.77 170.68 97.899 170.938 97.899C171.081 97.899 171.196 97.899 171.282 97.899C171.397 97.8703 171.54 97.8417 171.712 97.813L172.486 102.5C172.142 102.643 171.698 102.758 171.153 102.844C170.637 102.959 170.021 103.016 169.304 103.016ZM182.081 103.016C180.676 103.016 179.228 102.744 177.738 102.199C176.276 101.654 175 100.938 173.911 100.049L176.749 96.093C177.723 96.8097 178.655 97.3687 179.544 97.77C180.461 98.1427 181.364 98.329 182.253 98.329C183.199 98.329 183.887 98.1713 184.317 97.856C184.747 97.512 184.962 97.0677 184.962 96.523C184.962 96.0357 184.747 95.6343 184.317 95.319C183.915 95.0037 183.385 94.717 182.726 94.459C182.066 94.1723 181.364 93.8857 180.619 93.599C179.759 93.255 178.899 92.825 178.039 92.309C177.207 91.793 176.505 91.1337 175.932 90.331C175.358 89.4997 175.072 88.4963 175.072 87.321C175.072 85.343 175.817 83.7377 177.308 82.505C178.827 81.2723 180.805 80.656 183.242 80.656C184.876 80.656 186.309 80.9427 187.542 81.516C188.803 82.0607 189.878 82.677 190.767 83.365L187.929 87.149C187.183 86.5757 186.438 86.1313 185.693 85.816C184.947 85.5007 184.202 85.343 183.457 85.343C181.823 85.343 181.006 85.902 181.006 87.02C181.006 87.708 181.407 88.2383 182.21 88.611C183.041 88.955 184.001 89.3277 185.091 89.729C186.008 90.0443 186.897 90.46 187.757 90.976C188.645 91.4633 189.376 92.1227 189.95 92.954C190.552 93.7567 190.853 94.8173 190.853 96.136C190.853 98.0567 190.107 99.6907 188.617 101.038C187.126 102.357 184.947 103.016 182.081 103.016Z" fill="#353535"/>
<path d="M215.688 103.016C213.337 103.016 211.173 102.471 209.195 101.382C207.217 100.293 205.626 98.6873 204.422 96.566C203.246 94.416 202.659 91.7787 202.659 88.654C202.659 85.558 203.261 82.9207 204.465 80.742C205.697 78.5347 207.317 76.8577 209.324 75.711C211.359 74.5357 213.552 73.948 215.903 73.948C217.709 73.948 219.328 74.3207 220.762 75.066C222.195 75.7827 223.385 76.6283 224.331 77.603L220.977 81.645C220.26 80.9857 219.5 80.4553 218.698 80.054C217.924 79.624 217.035 79.409 216.032 79.409C214.77 79.409 213.609 79.7673 212.549 80.484C211.517 81.2007 210.685 82.2327 210.055 83.58C209.453 84.9273 209.152 86.547 209.152 88.439C209.152 91.3057 209.768 93.5417 211.001 95.147C212.233 96.7523 213.882 97.555 215.946 97.555C217.092 97.555 218.11 97.297 218.999 96.781C219.916 96.265 220.719 95.6487 221.407 94.932L224.761 98.888C222.41 101.64 219.386 103.016 215.688 103.016ZM228.503 102.5V81.172H233.663L234.093 84.913H234.265C235.039 83.4797 235.971 82.419 237.06 81.731C238.149 81.0143 239.239 80.656 240.328 80.656C240.93 80.656 241.432 80.699 241.833 80.785C242.234 80.8423 242.578 80.9427 242.865 81.086L241.833 86.547C241.46 86.4323 241.088 86.3463 240.715 86.289C240.371 86.2317 239.97 86.203 239.511 86.203C238.708 86.203 237.863 86.504 236.974 87.106C236.114 87.6793 235.397 88.6827 234.824 90.116V102.5H228.503ZM245.636 102.5V81.172H251.957V102.5H245.636ZM248.775 78.033C247.714 78.033 246.854 77.732 246.195 77.13C245.535 76.528 245.206 75.7253 245.206 74.722C245.206 73.7187 245.535 72.916 246.195 72.314C246.854 71.712 247.714 71.411 248.775 71.411C249.835 71.411 250.695 71.712 251.355 72.314C252.014 72.916 252.344 73.7187 252.344 74.722C252.344 75.7253 252.014 76.528 251.355 77.13C250.695 77.732 249.835 78.033 248.775 78.033ZM263.798 103.016C262.393 103.016 260.945 102.744 259.455 102.199C257.993 101.654 256.717 100.938 255.628 100.049L258.466 96.093C259.44 96.8097 260.372 97.3687 261.261 97.77C262.178 98.1427 263.081 98.329 263.97 98.329C264.916 98.329 265.604 98.1713 266.034 97.856C266.464 97.512 266.679 97.0677 266.679 96.523C266.679 96.0357 266.464 95.6343 266.034 95.319C265.632 95.0037 265.102 94.717 264.443 94.459C263.783 94.1723 263.081 93.8857 262.336 93.599C261.476 93.255 260.616 92.825 259.756 92.309C258.924 91.793 258.222 91.1337 257.649 90.331C257.075 89.4997 256.789 88.4963 256.789 87.321C256.789 85.343 257.534 83.7377 259.025 82.505C260.544 81.2723 262.522 80.656 264.959 80.656C266.593 80.656 268.026 80.9427 269.259 81.516C270.52 82.0607 271.595 82.677 272.484 83.365L269.646 87.149C268.9 86.5757 268.155 86.1313 267.41 85.816C266.664 85.5007 265.919 85.343 265.174 85.343C263.54 85.343 262.723 85.902 262.723 87.02C262.723 87.708 263.124 88.2383 263.927 88.611C264.758 88.955 265.718 89.3277 266.808 89.729C267.725 90.0443 268.614 90.46 269.474 90.976C270.362 91.4633 271.093 92.1227 271.667 92.954C272.269 93.7567 272.57 94.8173 272.57 96.136C272.57 98.0567 271.824 99.6907 270.334 101.038C268.843 102.357 266.664 103.016 263.798 103.016ZM276.584 110.412V81.172H281.744L282.174 83.279H282.346C283.177 82.5337 284.109 81.9173 285.141 81.43C286.202 80.914 287.291 80.656 288.409 80.656C290.989 80.656 293.024 81.645 294.515 83.623C296.006 85.5723 296.751 88.1953 296.751 91.492C296.751 93.9287 296.321 96.007 295.461 97.727C294.601 99.447 293.483 100.766 292.107 101.683C290.76 102.572 289.312 103.016 287.764 103.016C286.847 103.016 285.958 102.83 285.098 102.457C284.238 102.056 283.435 101.497 282.69 100.78L282.905 104.177V110.412H276.584ZM286.302 97.856C287.391 97.856 288.323 97.3543 289.097 96.351C289.871 95.3477 290.258 93.7567 290.258 91.578C290.258 87.7367 289.025 85.816 286.56 85.816C285.327 85.816 284.109 86.461 282.905 87.751V96.48C283.478 96.996 284.052 97.3543 284.625 97.555C285.198 97.7557 285.757 97.856 286.302 97.856ZM303.263 110.842C302.632 110.842 302.073 110.799 301.586 110.713C301.127 110.627 300.683 110.527 300.253 110.412L301.371 105.596C301.571 105.625 301.801 105.668 302.059 105.725C302.317 105.811 302.56 105.854 302.79 105.854C303.85 105.854 304.667 105.596 305.241 105.08C305.814 104.564 306.244 103.89 306.531 103.059L306.832 101.941L298.619 81.172H304.983L308.036 90.331C308.351 91.3057 308.638 92.2947 308.896 93.298C309.154 94.3013 309.426 95.3333 309.713 96.394H309.885C310.114 95.3907 310.343 94.3873 310.573 93.384C310.831 92.352 311.089 91.3343 311.347 90.331L313.927 81.172H319.99L312.594 102.715C311.934 104.492 311.203 105.983 310.401 107.187C309.598 108.42 308.623 109.337 307.477 109.939C306.359 110.541 304.954 110.842 303.263 110.842ZM3.311 150.5V122.464H11.223C14.0897 122.464 16.5693 122.951 18.662 123.926C20.7547 124.901 22.3743 126.42 23.521 128.484C24.6963 130.519 25.284 133.142 25.284 136.353C25.284 139.564 24.7107 142.215 23.564 144.308C22.4173 146.401 20.812 147.963 18.748 148.995C16.7127 149.998 14.319 150.5 11.567 150.5H3.311ZM9.632 145.383H10.836C12.4413 145.383 13.8317 145.096 15.007 144.523C16.211 143.95 17.1427 143.004 17.802 141.685C18.4613 140.366 18.791 138.589 18.791 136.353C18.791 134.117 18.4613 132.368 17.802 131.107C17.1427 129.817 16.211 128.914 15.007 128.398C13.8317 127.853 12.4413 127.581 10.836 127.581H9.632V145.383ZM30.0899 150.5V129.172H36.4109V150.5H30.0899ZM33.2289 126.033C32.1683 126.033 31.3083 125.732 30.6489 125.13C29.9896 124.528 29.6599 123.725 29.6599 122.722C29.6599 121.719 29.9896 120.916 30.6489 120.314C31.3083 119.712 32.1683 119.411 33.2289 119.411C34.2896 119.411 35.1496 119.712 35.8089 120.314C36.4683 120.916 36.7979 121.719 36.7979 122.722C36.7979 123.725 36.4683 124.528 35.8089 125.13C35.1496 125.732 34.2896 126.033 33.2289 126.033ZM56.6367 150.5V134.117H49.3697V150.5H43.0487V134.117H40.2107V129.43L43.0487 129.215V128.226C43.0487 126.764 43.321 125.431 43.8657 124.227C44.4104 123.023 45.2704 122.063 46.4457 121.346C47.6497 120.629 49.212 120.271 51.1327 120.271C52.05 120.271 52.8957 120.357 53.6697 120.529C54.4437 120.672 55.0744 120.844 55.5617 121.045L54.4007 125.732C54.0567 125.589 53.6984 125.474 53.3257 125.388C52.953 125.302 52.48 125.259 51.9067 125.259C51.19 125.259 50.588 125.503 50.1007 125.99C49.6134 126.449 49.3697 127.18 49.3697 128.183V129.172H56.6367V128.054C56.6367 126.535 56.8947 125.159 57.4107 123.926C57.9267 122.693 58.758 121.704 59.9047 120.959C61.0514 120.214 62.585 119.841 64.5057 119.841C65.3944 119.841 66.2114 119.927 66.9567 120.099C67.702 120.271 68.304 120.443 68.7627 120.615L67.6017 125.259C67.229 125.116 66.8564 125.015 66.4837 124.958C66.111 124.872 65.7527 124.829 65.4087 124.829C64.6347 124.829 64.0327 125.073 63.6027 125.56C63.1727 126.019 62.9577 126.793 62.9577 127.882V129.172H66.7847V134.117H62.9577V150.5H56.6367ZM79.3605 151.016C77.3252 151.016 75.4905 150.572 73.8565 149.683C72.2225 148.794 70.9325 147.519 69.9865 145.856C69.0405 144.193 68.5675 142.187 68.5675 139.836C68.5675 137.514 69.0405 135.522 69.9865 133.859C70.9612 132.196 72.2225 130.921 73.7705 130.032C75.3185 129.115 76.9382 128.656 78.6295 128.656C80.6649 128.656 82.3419 129.115 83.6605 130.032C85.0079 130.921 86.0112 132.139 86.6705 133.687C87.3585 135.206 87.7025 136.941 87.7025 138.89C87.7025 139.435 87.6739 139.979 87.6165 140.524C87.5592 141.04 87.5019 141.427 87.4445 141.685H74.6735C74.9602 143.233 75.6052 144.38 76.6085 145.125C77.6119 145.842 78.8159 146.2 80.2205 146.2C81.7399 146.2 83.2735 145.727 84.8215 144.781L86.9285 148.608C85.8392 149.353 84.6209 149.941 83.2735 150.371C81.9262 150.801 80.6219 151.016 79.3605 151.016ZM74.6305 137.514H82.3275C82.3275 136.339 82.0409 135.378 81.4675 134.633C80.9229 133.859 80.0199 133.472 78.7585 133.472C77.7839 133.472 76.9095 133.816 76.1355 134.504C75.3615 135.163 74.8599 136.167 74.6305 137.514ZM92.0704 150.5V129.172H97.2304L97.6604 131.881H97.8324C98.7497 131.021 99.7531 130.276 100.842 129.645C101.96 128.986 103.236 128.656 104.669 128.656C106.991 128.656 108.668 129.43 109.7 130.978C110.761 132.497 111.291 134.59 111.291 137.256V150.5H104.97V138.073C104.97 136.525 104.755 135.464 104.325 134.891C103.924 134.318 103.265 134.031 102.347 134.031C101.545 134.031 100.857 134.217 100.283 134.59C99.7101 134.934 99.0794 135.436 98.3914 136.095V150.5H92.0704Z" fill="#FFB30E"/>
<path d="M8.96484 197.5H1.6875V184.65H8.96484V186.426H3.79688V189.915H8.63965V191.682H3.79688V195.716H8.96484V197.5ZM16.6025 187.586C17.6982 187.586 18.5508 187.87 19.1602 188.438C19.7754 189.001 20.083 189.906 20.083 191.154V197.5H18.0176V191.541C18.0176 190.785 17.8623 190.22 17.5518 189.845C17.2412 189.464 16.7607 189.273 16.1104 189.273C15.167 189.273 14.5107 189.563 14.1416 190.144C13.7783 190.724 13.5967 191.564 13.5967 192.666V197.5H11.5312V187.771H13.1396L13.4297 189.089H13.5439C13.7549 188.749 14.0156 188.471 14.3262 188.254C14.6426 188.031 14.9941 187.864 15.3809 187.753C15.7734 187.642 16.1807 187.586 16.6025 187.586ZM21.999 201.824C21.6943 201.824 21.4043 201.801 21.1289 201.754C20.8535 201.713 20.6221 201.663 20.4346 201.604V199.952C20.6338 200.011 20.8271 200.055 21.0146 200.084C21.2021 200.113 21.416 200.128 21.6562 200.128C22.0371 200.128 22.3506 200.022 22.5967 199.812C22.8486 199.601 22.9746 199.199 22.9746 198.607V187.771H25.04V198.792C25.04 199.384 24.9346 199.908 24.7236 200.365C24.5186 200.822 24.1904 201.18 23.7393 201.438C23.2939 201.695 22.7139 201.824 21.999 201.824ZM22.8516 185.178C22.8516 184.762 22.9629 184.469 23.1855 184.299C23.4141 184.129 23.6924 184.044 24.0205 184.044C24.3369 184.044 24.6094 184.129 24.8379 184.299C25.0723 184.469 25.1895 184.762 25.1895 185.178C25.1895 185.588 25.0723 185.881 24.8379 186.057C24.6094 186.227 24.3369 186.312 24.0205 186.312C23.6924 186.312 23.4141 186.227 23.1855 186.057C22.9629 185.881 22.8516 185.588 22.8516 185.178ZM36.6152 192.613C36.6152 193.422 36.5098 194.14 36.2988 194.767C36.0879 195.394 35.7803 195.924 35.376 196.357C34.9717 196.785 34.4854 197.113 33.917 197.342C33.3486 197.564 32.707 197.676 31.9922 197.676C31.3242 197.676 30.7119 197.564 30.1553 197.342C29.5986 197.113 29.1152 196.785 28.7051 196.357C28.3008 195.924 27.9873 195.394 27.7646 194.767C27.542 194.14 27.4307 193.422 27.4307 192.613C27.4307 191.541 27.6152 190.633 27.9844 189.889C28.3594 189.139 28.8926 188.567 29.584 188.175C30.2754 187.782 31.0986 187.586 32.0537 187.586C32.9502 187.586 33.7412 187.782 34.4268 188.175C35.1123 188.567 35.6484 189.139 36.0352 189.889C36.4219 190.639 36.6152 191.547 36.6152 192.613ZM29.5576 192.613C29.5576 193.322 29.6426 193.929 29.8125 194.433C29.9883 194.937 30.2578 195.323 30.6211 195.593C30.9844 195.856 31.4531 195.988 32.0273 195.988C32.6016 195.988 33.0703 195.856 33.4336 195.593C33.7969 195.323 34.0635 194.937 34.2334 194.433C34.4033 193.929 34.4883 193.322 34.4883 192.613C34.4883 191.904 34.4033 191.304 34.2334 190.812C34.0635 190.313 33.7969 189.936 33.4336 189.678C33.0703 189.414 32.5986 189.282 32.0186 189.282C31.1631 189.282 30.5391 189.569 30.1465 190.144C29.7539 190.718 29.5576 191.541 29.5576 192.613ZM37.5205 187.771H39.7705L41.7656 193.325C41.8535 193.577 41.9326 193.826 42.0029 194.072C42.0791 194.312 42.1436 194.55 42.1963 194.784C42.2549 195.019 42.3018 195.253 42.3369 195.487H42.3896C42.4482 195.183 42.5303 194.843 42.6357 194.468C42.7471 194.087 42.8701 193.706 43.0049 193.325L44.9209 187.771H47.1445L42.9697 198.836C42.7295 199.469 42.4336 200.008 42.082 200.453C41.7363 200.904 41.3262 201.244 40.8516 201.473C40.377 201.707 39.835 201.824 39.2256 201.824C38.9326 201.824 38.6777 201.807 38.4609 201.771C38.2441 201.742 38.0596 201.71 37.9072 201.675V200.022C38.0303 200.052 38.1855 200.078 38.373 200.102C38.5605 200.125 38.7539 200.137 38.9531 200.137C39.3223 200.137 39.6416 200.063 39.9111 199.917C40.1807 199.771 40.4092 199.562 40.5967 199.293C40.7842 199.029 40.9395 198.728 41.0625 198.388L41.4053 197.474L37.5205 187.771ZM56.918 196.006C57.1875 196.006 57.4541 195.982 57.7178 195.936C57.9814 195.883 58.2217 195.821 58.4385 195.751V197.315C58.21 197.415 57.9141 197.5 57.5508 197.57C57.1875 197.641 56.8096 197.676 56.417 197.676C55.8662 197.676 55.3711 197.585 54.9316 197.403C54.4922 197.216 54.1436 196.896 53.8857 196.445C53.6279 195.994 53.499 195.37 53.499 194.573V189.344H52.1719V188.421L53.5957 187.691L54.2725 185.608H55.5732V187.771H58.3594V189.344H55.5732V194.547C55.5732 195.039 55.6963 195.405 55.9424 195.646C56.1885 195.886 56.5137 196.006 56.918 196.006ZM62.4814 183.824V187.261C62.4814 187.618 62.4697 187.967 62.4463 188.307C62.4287 188.646 62.4082 188.91 62.3848 189.098H62.499C62.7041 188.758 62.9561 188.479 63.2549 188.263C63.5537 188.04 63.8877 187.873 64.2568 187.762C64.6318 187.65 65.0303 187.595 65.4521 187.595C66.1963 187.595 66.8291 187.721 67.3506 187.973C67.8721 188.219 68.2705 188.603 68.5459 189.124C68.8271 189.646 68.9678 190.322 68.9678 191.154V197.5H66.9023V191.541C66.9023 190.785 66.7471 190.22 66.4365 189.845C66.126 189.464 65.6455 189.273 64.9951 189.273C64.3682 189.273 63.8701 189.405 63.501 189.669C63.1377 189.927 62.877 190.311 62.7188 190.82C62.5605 191.324 62.4814 191.939 62.4814 192.666V197.5H60.416V183.824H62.4814ZM75.7354 187.586C76.6025 187.586 77.3467 187.765 77.9678 188.122C78.5889 188.479 79.0664 188.986 79.4004 189.643C79.7344 190.299 79.9014 191.084 79.9014 191.998V193.105H73.4062C73.4297 194.049 73.6816 194.775 74.1621 195.285C74.6484 195.795 75.3281 196.05 76.2012 196.05C76.8223 196.05 77.3789 195.991 77.8711 195.874C78.3691 195.751 78.8818 195.572 79.4092 195.338V197.017C78.9229 197.245 78.4277 197.412 77.9238 197.518C77.4199 197.623 76.8164 197.676 76.1133 197.676C75.1582 197.676 74.3174 197.491 73.5908 197.122C72.8701 196.747 72.3047 196.19 71.8945 195.452C71.4902 194.714 71.2881 193.797 71.2881 192.701C71.2881 191.611 71.4727 190.686 71.8418 189.924C72.2109 189.162 72.7295 188.582 73.3975 188.184C74.0654 187.785 74.8447 187.586 75.7354 187.586ZM75.7354 189.142C75.085 189.142 74.5576 189.353 74.1533 189.774C73.7549 190.196 73.5205 190.814 73.4502 191.629H77.8799C77.874 191.143 77.792 190.712 77.6338 190.337C77.4814 189.962 77.2471 189.669 76.9307 189.458C76.6201 189.247 76.2217 189.142 75.7354 189.142ZM88.9805 197.5H86.9062V183.824H88.9805V197.5ZM95.748 187.586C96.9785 187.586 97.9072 187.858 98.5342 188.403C99.167 188.948 99.4834 189.798 99.4834 190.952V197.5H98.0156L97.6201 196.12H97.5498C97.2744 196.472 96.9902 196.762 96.6973 196.99C96.4043 197.219 96.0645 197.389 95.6777 197.5C95.2969 197.617 94.8311 197.676 94.2803 197.676C93.7002 197.676 93.1816 197.57 92.7246 197.359C92.2676 197.143 91.9072 196.814 91.6436 196.375C91.3799 195.936 91.248 195.379 91.248 194.705C91.248 193.703 91.6201 192.95 92.3643 192.446C93.1143 191.942 94.2451 191.664 95.7568 191.611L97.4443 191.55V191.04C97.4443 190.366 97.2861 189.886 96.9697 189.599C96.6592 189.312 96.2197 189.168 95.6514 189.168C95.165 189.168 94.6934 189.238 94.2363 189.379C93.7793 189.52 93.334 189.692 92.9004 189.897L92.2324 188.438C92.707 188.187 93.2461 187.981 93.8496 187.823C94.459 187.665 95.0918 187.586 95.748 187.586ZM97.4355 192.851L96.1787 192.895C95.1475 192.93 94.4238 193.105 94.0078 193.422C93.5918 193.738 93.3838 194.172 93.3838 194.723C93.3838 195.203 93.5273 195.555 93.8145 195.777C94.1016 195.994 94.4795 196.103 94.9482 196.103C95.6631 196.103 96.2549 195.9 96.7236 195.496C97.1982 195.086 97.4355 194.485 97.4355 193.694V192.851ZM107.306 187.586C107.47 187.586 107.648 187.595 107.842 187.612C108.035 187.63 108.202 187.653 108.343 187.683L108.149 189.616C108.026 189.581 107.874 189.555 107.692 189.537C107.517 189.52 107.358 189.511 107.218 189.511C106.849 189.511 106.497 189.572 106.163 189.695C105.829 189.812 105.533 189.994 105.275 190.24C105.018 190.48 104.815 190.782 104.669 191.146C104.522 191.509 104.449 191.931 104.449 192.411V197.5H102.375V187.771H103.992L104.273 189.484H104.37C104.563 189.139 104.804 188.822 105.091 188.535C105.378 188.248 105.706 188.02 106.075 187.85C106.45 187.674 106.86 187.586 107.306 187.586ZM112.922 201.824C111.604 201.824 110.593 201.587 109.89 201.112C109.187 200.638 108.835 199.973 108.835 199.117C108.835 198.52 109.022 198.013 109.397 197.597C109.772 197.187 110.309 196.902 111.006 196.744C110.742 196.627 110.514 196.445 110.32 196.199C110.133 195.947 110.039 195.669 110.039 195.364C110.039 195.001 110.142 194.69 110.347 194.433C110.552 194.175 110.859 193.926 111.27 193.686C110.76 193.469 110.35 193.117 110.039 192.631C109.734 192.139 109.582 191.562 109.582 190.899C109.582 190.196 109.731 189.599 110.03 189.106C110.329 188.608 110.766 188.23 111.34 187.973C111.914 187.709 112.608 187.577 113.423 187.577C113.599 187.577 113.789 187.589 113.994 187.612C114.205 187.63 114.398 187.653 114.574 187.683C114.756 187.706 114.894 187.732 114.987 187.762H118.354V188.913L116.701 189.221C116.859 189.443 116.985 189.698 117.079 189.985C117.173 190.267 117.22 190.574 117.22 190.908C117.22 191.916 116.871 192.71 116.174 193.29C115.482 193.864 114.527 194.151 113.309 194.151C113.016 194.14 112.731 194.116 112.456 194.081C112.245 194.21 112.084 194.354 111.973 194.512C111.861 194.664 111.806 194.837 111.806 195.03C111.806 195.188 111.861 195.317 111.973 195.417C112.084 195.511 112.248 195.581 112.465 195.628C112.688 195.675 112.957 195.698 113.273 195.698H114.952C116.019 195.698 116.833 195.924 117.396 196.375C117.958 196.826 118.239 197.488 118.239 198.361C118.239 199.469 117.782 200.321 116.868 200.919C115.954 201.522 114.639 201.824 112.922 201.824ZM113.001 200.374C113.722 200.374 114.328 200.304 114.82 200.163C115.312 200.022 115.685 199.82 115.937 199.557C116.188 199.299 116.314 198.991 116.314 198.634C116.314 198.317 116.235 198.074 116.077 197.904C115.919 197.734 115.682 197.617 115.365 197.553C115.049 197.488 114.656 197.456 114.188 197.456H112.658C112.277 197.456 111.94 197.515 111.647 197.632C111.354 197.755 111.126 197.931 110.962 198.159C110.804 198.388 110.725 198.663 110.725 198.985C110.725 199.431 110.921 199.773 111.313 200.014C111.712 200.254 112.274 200.374 113.001 200.374ZM113.405 192.798C114.009 192.798 114.457 192.634 114.75 192.306C115.043 191.972 115.189 191.503 115.189 190.899C115.189 190.243 115.037 189.751 114.732 189.423C114.434 189.095 113.988 188.931 113.396 188.931C112.816 188.931 112.374 189.098 112.069 189.432C111.771 189.766 111.621 190.261 111.621 190.917C111.621 191.509 111.771 191.972 112.069 192.306C112.374 192.634 112.819 192.798 113.405 192.798ZM124.005 187.586C124.872 187.586 125.616 187.765 126.237 188.122C126.858 188.479 127.336 188.986 127.67 189.643C128.004 190.299 128.171 191.084 128.171 191.998V193.105H121.676C121.699 194.049 121.951 194.775 122.432 195.285C122.918 195.795 123.598 196.05 124.471 196.05C125.092 196.05 125.648 195.991 126.141 195.874C126.639 195.751 127.151 195.572 127.679 195.338V197.017C127.192 197.245 126.697 197.412 126.193 197.518C125.689 197.623 125.086 197.676 124.383 197.676C123.428 197.676 122.587 197.491 121.86 197.122C121.14 196.747 120.574 196.19 120.164 195.452C119.76 194.714 119.558 193.797 119.558 192.701C119.558 191.611 119.742 190.686 120.111 189.924C120.48 189.162 120.999 188.582 121.667 188.184C122.335 187.785 123.114 187.586 124.005 187.586ZM124.005 189.142C123.354 189.142 122.827 189.353 122.423 189.774C122.024 190.196 121.79 190.814 121.72 191.629H126.149C126.144 191.143 126.062 190.712 125.903 190.337C125.751 189.962 125.517 189.669 125.2 189.458C124.89 189.247 124.491 189.142 124.005 189.142ZM141.715 194.723C141.715 195.361 141.56 195.9 141.249 196.34C140.938 196.779 140.484 197.113 139.887 197.342C139.295 197.564 138.568 197.676 137.707 197.676C137.027 197.676 136.441 197.626 135.949 197.526C135.463 197.433 135.003 197.286 134.569 197.087V195.303C135.032 195.52 135.551 195.707 136.125 195.865C136.705 196.023 137.253 196.103 137.769 196.103C138.448 196.103 138.938 195.997 139.236 195.786C139.535 195.569 139.685 195.282 139.685 194.925C139.685 194.714 139.623 194.526 139.5 194.362C139.383 194.192 139.16 194.02 138.832 193.844C138.51 193.662 138.035 193.445 137.408 193.193C136.793 192.947 136.274 192.701 135.853 192.455C135.431 192.209 135.111 191.913 134.895 191.567C134.678 191.216 134.569 190.768 134.569 190.223C134.569 189.361 134.909 188.708 135.589 188.263C136.274 187.812 137.18 187.586 138.305 187.586C138.902 187.586 139.465 187.647 139.992 187.771C140.525 187.888 141.047 188.061 141.557 188.289L140.906 189.845C140.467 189.651 140.024 189.493 139.579 189.37C139.14 189.241 138.691 189.177 138.234 189.177C137.701 189.177 137.294 189.259 137.013 189.423C136.737 189.587 136.6 189.821 136.6 190.126C136.6 190.354 136.667 190.548 136.802 190.706C136.937 190.864 137.168 191.022 137.496 191.181C137.83 191.339 138.293 191.535 138.885 191.77C139.465 191.992 139.966 192.227 140.388 192.473C140.815 192.713 141.144 193.009 141.372 193.36C141.601 193.712 141.715 194.166 141.715 194.723ZM146.013 187.771V197.5H143.947V187.771H146.013ZM144.993 184.044C145.31 184.044 145.582 184.129 145.811 184.299C146.045 184.469 146.162 184.762 146.162 185.178C146.162 185.588 146.045 185.881 145.811 186.057C145.582 186.227 145.31 186.312 144.993 186.312C144.665 186.312 144.387 186.227 144.158 186.057C143.936 185.881 143.824 185.588 143.824 185.178C143.824 184.762 143.936 184.469 144.158 184.299C144.387 184.129 144.665 184.044 144.993 184.044ZM155.487 197.5H148.096V196.226L153.009 189.361H148.395V187.771H155.347V189.177L150.53 195.909H155.487V197.5ZM161.464 187.586C162.331 187.586 163.075 187.765 163.696 188.122C164.317 188.479 164.795 188.986 165.129 189.643C165.463 190.299 165.63 191.084 165.63 191.998V193.105H159.135C159.158 194.049 159.41 194.775 159.891 195.285C160.377 195.795 161.057 196.05 161.93 196.05C162.551 196.05 163.107 195.991 163.6 195.874C164.098 195.751 164.61 195.572 165.138 195.338V197.017C164.651 197.245 164.156 197.412 163.652 197.518C163.148 197.623 162.545 197.676 161.842 197.676C160.887 197.676 160.046 197.491 159.319 197.122C158.599 196.747 158.033 196.19 157.623 195.452C157.219 194.714 157.017 193.797 157.017 192.701C157.017 191.611 157.201 190.686 157.57 189.924C157.939 189.162 158.458 188.582 159.126 188.184C159.794 187.785 160.573 187.586 161.464 187.586ZM161.464 189.142C160.813 189.142 160.286 189.353 159.882 189.774C159.483 190.196 159.249 190.814 159.179 191.629H163.608C163.603 191.143 163.521 190.712 163.362 190.337C163.21 189.962 162.976 189.669 162.659 189.458C162.349 189.247 161.95 189.142 161.464 189.142ZM181.248 192.613C181.248 193.422 181.143 194.14 180.932 194.767C180.721 195.394 180.413 195.924 180.009 196.357C179.604 196.785 179.118 197.113 178.55 197.342C177.981 197.564 177.34 197.676 176.625 197.676C175.957 197.676 175.345 197.564 174.788 197.342C174.231 197.113 173.748 196.785 173.338 196.357C172.934 195.924 172.62 195.394 172.397 194.767C172.175 194.14 172.063 193.422 172.063 192.613C172.063 191.541 172.248 190.633 172.617 189.889C172.992 189.139 173.525 188.567 174.217 188.175C174.908 187.782 175.731 187.586 176.687 187.586C177.583 187.586 178.374 187.782 179.06 188.175C179.745 188.567 180.281 189.139 180.668 189.889C181.055 190.639 181.248 191.547 181.248 192.613ZM174.19 192.613C174.19 193.322 174.275 193.929 174.445 194.433C174.621 194.937 174.891 195.323 175.254 195.593C175.617 195.856 176.086 195.988 176.66 195.988C177.234 195.988 177.703 195.856 178.066 195.593C178.43 195.323 178.696 194.937 178.866 194.433C179.036 193.929 179.121 193.322 179.121 192.613C179.121 191.904 179.036 191.304 178.866 190.812C178.696 190.313 178.43 189.936 178.066 189.678C177.703 189.414 177.231 189.282 176.651 189.282C175.796 189.282 175.172 189.569 174.779 190.144C174.387 190.718 174.19 191.541 174.19 192.613ZM188.481 189.344H186.117V197.5H184.052V189.344H182.461V188.351L184.052 187.744V187.067C184.052 186.241 184.181 185.585 184.438 185.099C184.702 184.612 185.077 184.264 185.563 184.053C186.056 183.836 186.642 183.728 187.321 183.728C187.767 183.728 188.174 183.766 188.543 183.842C188.912 183.912 189.223 183.994 189.475 184.088L188.938 185.652C188.739 185.588 188.517 185.529 188.271 185.477C188.024 185.418 187.761 185.389 187.479 185.389C187.011 185.389 186.665 185.535 186.442 185.828C186.226 186.121 186.117 186.549 186.117 187.111V187.771H188.481V189.344ZM205.462 190.952C205.462 192.399 205.192 193.609 204.653 194.582C204.114 195.549 203.332 196.278 202.307 196.771C201.281 197.257 200.045 197.5 198.598 197.5H195.029V184.65H198.984C200.314 184.65 201.463 184.891 202.43 185.371C203.396 185.846 204.144 186.552 204.671 187.489C205.198 188.421 205.462 189.575 205.462 190.952ZM203.265 191.014C203.265 189.959 203.098 189.092 202.764 188.412C202.436 187.732 201.949 187.229 201.305 186.9C200.666 186.566 199.878 186.399 198.94 186.399H197.139V195.733H198.633C200.186 195.733 201.346 195.338 202.113 194.547C202.881 193.756 203.265 192.578 203.265 191.014ZM216.633 192.613C216.633 193.422 216.527 194.14 216.316 194.767C216.105 195.394 215.798 195.924 215.394 196.357C214.989 196.785 214.503 197.113 213.935 197.342C213.366 197.564 212.725 197.676 212.01 197.676C211.342 197.676 210.729 197.564 210.173 197.342C209.616 197.113 209.133 196.785 208.723 196.357C208.318 195.924 208.005 195.394 207.782 194.767C207.56 194.14 207.448 193.422 207.448 192.613C207.448 191.541 207.633 190.633 208.002 189.889C208.377 189.139 208.91 188.567 209.602 188.175C210.293 187.782 211.116 187.586 212.071 187.586C212.968 187.586 213.759 187.782 214.444 188.175C215.13 188.567 215.666 189.139 216.053 189.889C216.439 190.639 216.633 191.547 216.633 192.613ZM209.575 192.613C209.575 193.322 209.66 193.929 209.83 194.433C210.006 194.937 210.275 195.323 210.639 195.593C211.002 195.856 211.471 195.988 212.045 195.988C212.619 195.988 213.088 195.856 213.451 195.593C213.814 195.323 214.081 194.937 214.251 194.433C214.421 193.929 214.506 193.322 214.506 192.613C214.506 191.904 214.421 191.304 214.251 190.812C214.081 190.313 213.814 189.936 213.451 189.678C213.088 189.414 212.616 189.282 212.036 189.282C211.181 189.282 210.557 189.569 210.164 190.144C209.771 190.718 209.575 191.541 209.575 192.613ZM225.545 194.723C225.545 195.361 225.39 195.9 225.079 196.34C224.769 196.779 224.314 197.113 223.717 197.342C223.125 197.564 222.398 197.676 221.537 197.676C220.857 197.676 220.271 197.626 219.779 197.526C219.293 197.433 218.833 197.286 218.399 197.087V195.303C218.862 195.52 219.381 195.707 219.955 195.865C220.535 196.023 221.083 196.103 221.599 196.103C222.278 196.103 222.768 195.997 223.066 195.786C223.365 195.569 223.515 195.282 223.515 194.925C223.515 194.714 223.453 194.526 223.33 194.362C223.213 194.192 222.99 194.02 222.662 193.844C222.34 193.662 221.865 193.445 221.238 193.193C220.623 192.947 220.104 192.701 219.683 192.455C219.261 192.209 218.941 191.913 218.725 191.567C218.508 191.216 218.399 190.768 218.399 190.223C218.399 189.361 218.739 188.708 219.419 188.263C220.104 187.812 221.01 187.586 222.135 187.586C222.732 187.586 223.295 187.647 223.822 187.771C224.355 187.888 224.877 188.061 225.387 188.289L224.736 189.845C224.297 189.651 223.854 189.493 223.409 189.37C222.97 189.241 222.521 189.177 222.064 189.177C221.531 189.177 221.124 189.259 220.843 189.423C220.567 189.587 220.43 189.821 220.43 190.126C220.43 190.354 220.497 190.548 220.632 190.706C220.767 190.864 220.998 191.022 221.326 191.181C221.66 191.339 222.123 191.535 222.715 191.77C223.295 191.992 223.796 192.227 224.218 192.473C224.646 192.713 224.974 193.009 225.202 193.36C225.431 193.712 225.545 194.166 225.545 194.723ZM231.592 187.586C232.822 187.586 233.751 187.858 234.378 188.403C235.011 188.948 235.327 189.798 235.327 190.952V197.5H233.859L233.464 196.12H233.394C233.118 196.472 232.834 196.762 232.541 196.99C232.248 197.219 231.908 197.389 231.521 197.5C231.141 197.617 230.675 197.676 230.124 197.676C229.544 197.676 229.025 197.57 228.568 197.359C228.111 197.143 227.751 196.814 227.487 196.375C227.224 195.936 227.092 195.379 227.092 194.705C227.092 193.703 227.464 192.95 228.208 192.446C228.958 191.942 230.089 191.664 231.601 191.611L233.288 191.55V191.04C233.288 190.366 233.13 189.886 232.813 189.599C232.503 189.312 232.063 189.168 231.495 189.168C231.009 189.168 230.537 189.238 230.08 189.379C229.623 189.52 229.178 189.692 228.744 189.897L228.076 188.438C228.551 188.187 229.09 187.981 229.693 187.823C230.303 187.665 230.936 187.586 231.592 187.586ZM233.279 192.851L232.022 192.895C230.991 192.93 230.268 193.105 229.852 193.422C229.436 193.738 229.228 194.172 229.228 194.723C229.228 195.203 229.371 195.555 229.658 195.777C229.945 195.994 230.323 196.103 230.792 196.103C231.507 196.103 232.099 195.9 232.567 195.496C233.042 195.086 233.279 194.485 233.279 193.694V192.851ZM237.92 196.41C237.92 195.93 238.043 195.593 238.289 195.399C238.541 195.2 238.846 195.101 239.203 195.101C239.561 195.101 239.865 195.2 240.117 195.399C240.375 195.593 240.504 195.93 240.504 196.41C240.504 196.879 240.375 197.219 240.117 197.43C239.865 197.635 239.561 197.737 239.203 197.737C238.846 197.737 238.541 197.635 238.289 197.43C238.043 197.219 237.92 196.879 237.92 196.41ZM253.521 186.259C252.905 186.259 252.354 186.37 251.868 186.593C251.388 186.815 250.98 187.138 250.646 187.56C250.312 187.976 250.058 188.482 249.882 189.08C249.706 189.672 249.618 190.34 249.618 191.084C249.618 192.08 249.759 192.938 250.04 193.659C250.321 194.374 250.749 194.925 251.323 195.312C251.897 195.692 252.624 195.883 253.503 195.883C254.048 195.883 254.578 195.83 255.094 195.725C255.609 195.619 256.143 195.476 256.693 195.294V197.087C256.172 197.292 255.645 197.441 255.111 197.535C254.578 197.629 253.963 197.676 253.266 197.676C251.953 197.676 250.863 197.403 249.996 196.858C249.135 196.313 248.49 195.546 248.062 194.556C247.641 193.565 247.43 192.405 247.43 191.075C247.43 190.103 247.564 189.212 247.834 188.403C248.104 187.595 248.496 186.897 249.012 186.312C249.527 185.72 250.163 185.266 250.919 184.949C251.681 184.627 252.551 184.466 253.529 184.466C254.174 184.466 254.807 184.539 255.428 184.686C256.055 184.826 256.635 185.028 257.168 185.292L256.43 187.032C255.984 186.821 255.519 186.64 255.032 186.487C254.546 186.335 254.042 186.259 253.521 186.259ZM267.855 192.613C267.855 193.422 267.75 194.14 267.539 194.767C267.328 195.394 267.021 195.924 266.616 196.357C266.212 196.785 265.726 197.113 265.157 197.342C264.589 197.564 263.947 197.676 263.232 197.676C262.564 197.676 261.952 197.564 261.396 197.342C260.839 197.113 260.355 196.785 259.945 196.357C259.541 195.924 259.228 195.394 259.005 194.767C258.782 194.14 258.671 193.422 258.671 192.613C258.671 191.541 258.855 190.633 259.225 189.889C259.6 189.139 260.133 188.567 260.824 188.175C261.516 187.782 262.339 187.586 263.294 187.586C264.19 187.586 264.981 187.782 265.667 188.175C266.353 188.567 266.889 189.139 267.275 189.889C267.662 190.639 267.855 191.547 267.855 192.613ZM260.798 192.613C260.798 193.322 260.883 193.929 261.053 194.433C261.229 194.937 261.498 195.323 261.861 195.593C262.225 195.856 262.693 195.988 263.268 195.988C263.842 195.988 264.311 195.856 264.674 195.593C265.037 195.323 265.304 194.937 265.474 194.433C265.644 193.929 265.729 193.322 265.729 192.613C265.729 191.904 265.644 191.304 265.474 190.812C265.304 190.313 265.037 189.936 264.674 189.678C264.311 189.414 263.839 189.282 263.259 189.282C262.403 189.282 261.779 189.569 261.387 190.144C260.994 190.718 260.798 191.541 260.798 192.613ZM281.224 187.586C282.313 187.586 283.134 187.867 283.685 188.43C284.241 188.992 284.52 189.895 284.52 191.137V197.5H282.454V191.506C282.454 190.768 282.311 190.211 282.023 189.836C281.736 189.461 281.3 189.273 280.714 189.273C279.894 189.273 279.302 189.537 278.938 190.064C278.581 190.586 278.402 191.345 278.402 192.341V197.5H276.337V191.506C276.337 191.014 276.272 190.604 276.144 190.275C276.021 189.941 275.83 189.692 275.572 189.528C275.314 189.358 274.989 189.273 274.597 189.273C274.028 189.273 273.574 189.402 273.234 189.66C272.9 189.918 272.66 190.299 272.514 190.803C272.367 191.301 272.294 191.913 272.294 192.64V197.5H270.229V187.771H271.837L272.127 189.08H272.241C272.44 188.74 272.687 188.462 272.979 188.245C273.278 188.022 273.609 187.858 273.973 187.753C274.336 187.642 274.714 187.586 275.106 187.586C275.833 187.586 276.445 187.715 276.943 187.973C277.441 188.225 277.813 188.611 278.06 189.133H278.218C278.522 188.605 278.947 188.216 279.492 187.964C280.037 187.712 280.614 187.586 281.224 187.586ZM292.395 187.586C293.549 187.586 294.475 188.008 295.172 188.852C295.875 189.695 296.227 190.949 296.227 192.613C296.227 193.715 296.062 194.644 295.734 195.399C295.412 196.149 294.958 196.718 294.372 197.104C293.792 197.485 293.115 197.676 292.342 197.676C291.85 197.676 291.422 197.611 291.059 197.482C290.695 197.354 290.385 197.187 290.127 196.981C289.869 196.771 289.652 196.542 289.477 196.296H289.354C289.383 196.53 289.409 196.791 289.433 197.078C289.462 197.359 289.477 197.617 289.477 197.852V201.815H287.402V187.771H289.09L289.38 189.115H289.477C289.658 188.84 289.878 188.585 290.136 188.351C290.399 188.116 290.716 187.932 291.085 187.797C291.46 187.656 291.896 187.586 292.395 187.586ZM291.841 189.273C291.272 189.273 290.815 189.388 290.47 189.616C290.13 189.839 289.881 190.176 289.723 190.627C289.57 191.078 289.488 191.644 289.477 192.323V192.613C289.477 193.334 289.55 193.946 289.696 194.45C289.849 194.948 290.098 195.329 290.443 195.593C290.795 195.851 291.27 195.979 291.867 195.979C292.371 195.979 292.787 195.842 293.115 195.566C293.449 195.291 293.698 194.898 293.862 194.389C294.026 193.879 294.108 193.278 294.108 192.587C294.108 191.538 293.921 190.724 293.546 190.144C293.177 189.563 292.608 189.273 291.841 189.273ZM300.691 197.5H298.617V183.824H300.691V197.5ZM307.521 187.586C308.388 187.586 309.132 187.765 309.753 188.122C310.374 188.479 310.852 188.986 311.186 189.643C311.52 190.299 311.687 191.084 311.687 191.998V193.105H305.191C305.215 194.049 305.467 194.775 305.947 195.285C306.434 195.795 307.113 196.05 307.986 196.05C308.607 196.05 309.164 195.991 309.656 195.874C310.154 195.751 310.667 195.572 311.194 195.338V197.017C310.708 197.245 310.213 197.412 309.709 197.518C309.205 197.623 308.602 197.676 307.898 197.676C306.943 197.676 306.103 197.491 305.376 197.122C304.655 196.747 304.09 196.19 303.68 195.452C303.275 194.714 303.073 193.797 303.073 192.701C303.073 191.611 303.258 190.686 303.627 189.924C303.996 189.162 304.515 188.582 305.183 188.184C305.851 187.785 306.63 187.586 307.521 187.586ZM307.521 189.142C306.87 189.142 306.343 189.353 305.938 189.774C305.54 190.196 305.306 190.814 305.235 191.629H309.665C309.659 191.143 309.577 190.712 309.419 190.337C309.267 189.962 309.032 189.669 308.716 189.458C308.405 189.247 308.007 189.142 307.521 189.142ZM317.637 196.006C317.906 196.006 318.173 195.982 318.437 195.936C318.7 195.883 318.94 195.821 319.157 195.751V197.315C318.929 197.415 318.633 197.5 318.27 197.57C317.906 197.641 317.528 197.676 317.136 197.676C316.585 197.676 316.09 197.585 315.65 197.403C315.211 197.216 314.862 196.896 314.604 196.445C314.347 195.994 314.218 195.37 314.218 194.573V189.344H312.891V188.421L314.314 187.691L314.991 185.608H316.292V187.771H319.078V189.344H316.292V194.547C316.292 195.039 316.415 195.405 316.661 195.646C316.907 195.886 317.232 196.006 317.637 196.006ZM325.011 187.586C325.878 187.586 326.622 187.765 327.243 188.122C327.864 188.479 328.342 188.986 328.676 189.643C329.01 190.299 329.177 191.084 329.177 191.998V193.105H322.682C322.705 194.049 322.957 194.775 323.438 195.285C323.924 195.795 324.604 196.05 325.477 196.05C326.098 196.05 326.654 195.991 327.146 195.874C327.645 195.751 328.157 195.572 328.685 195.338V197.017C328.198 197.245 327.703 197.412 327.199 197.518C326.695 197.623 326.092 197.676 325.389 197.676C324.434 197.676 323.593 197.491 322.866 197.122C322.146 196.747 321.58 196.19 321.17 195.452C320.766 194.714 320.563 193.797 320.563 192.701C320.563 191.611 320.748 190.686 321.117 189.924C321.486 189.162 322.005 188.582 322.673 188.184C323.341 187.785 324.12 187.586 325.011 187.586ZM325.011 189.142C324.36 189.142 323.833 189.353 323.429 189.774C323.03 190.196 322.796 190.814 322.726 191.629H327.155C327.149 191.143 327.067 190.712 326.909 190.337C326.757 189.962 326.522 189.669 326.206 189.458C325.896 189.247 325.497 189.142 325.011 189.142ZM6.46875 212.586C7.62305 212.586 8.54883 213.008 9.24609 213.852C9.94922 214.695 10.3008 215.949 10.3008 217.613C10.3008 218.715 10.1367 219.644 9.80859 220.399C9.48633 221.149 9.03223 221.718 8.44629 222.104C7.86621 222.485 7.18945 222.676 6.41602 222.676C5.92383 222.676 5.49609 222.611 5.13281 222.482C4.76953 222.354 4.45898 222.187 4.20117 221.981C3.94336 221.771 3.72656 221.542 3.55078 221.296H3.42773C3.45703 221.53 3.4834 221.791 3.50684 222.078C3.53613 222.359 3.55078 222.617 3.55078 222.852V226.815H1.47656V212.771H3.16406L3.4541 214.115H3.55078C3.73242 213.84 3.95215 213.585 4.20996 213.351C4.47363 213.116 4.79004 212.932 5.15918 212.797C5.53418 212.656 5.9707 212.586 6.46875 212.586ZM5.91504 214.273C5.34668 214.273 4.88965 214.388 4.54395 214.616C4.2041 214.839 3.95508 215.176 3.79688 215.627C3.64453 216.078 3.5625 216.644 3.55078 217.323V217.613C3.55078 218.334 3.62402 218.946 3.77051 219.45C3.92285 219.948 4.17188 220.329 4.51758 220.593C4.86914 220.851 5.34375 220.979 5.94141 220.979C6.44531 220.979 6.86133 220.842 7.18945 220.566C7.52344 220.291 7.77246 219.898 7.93652 219.389C8.10059 218.879 8.18262 218.278 8.18262 217.587C8.18262 216.538 7.99512 215.724 7.62012 215.144C7.25098 214.563 6.68262 214.273 5.91504 214.273ZM16.5674 212.586C17.4346 212.586 18.1787 212.765 18.7998 213.122C19.4209 213.479 19.8984 213.986 20.2324 214.643C20.5664 215.299 20.7334 216.084 20.7334 216.998V218.105H14.2383C14.2617 219.049 14.5137 219.775 14.9941 220.285C15.4805 220.795 16.1602 221.05 17.0332 221.05C17.6543 221.05 18.2109 220.991 18.7031 220.874C19.2012 220.751 19.7139 220.572 20.2412 220.338V222.017C19.7549 222.245 19.2598 222.412 18.7559 222.518C18.252 222.623 17.6484 222.676 16.9453 222.676C15.9902 222.676 15.1494 222.491 14.4229 222.122C13.7021 221.747 13.1367 221.19 12.7266 220.452C12.3223 219.714 12.1201 218.797 12.1201 217.701C12.1201 216.611 12.3047 215.686 12.6738 214.924C13.043 214.162 13.5615 213.582 14.2295 213.184C14.8975 212.785 15.6768 212.586 16.5674 212.586ZM16.5674 214.142C15.917 214.142 15.3896 214.353 14.9854 214.774C14.5869 215.196 14.3525 215.814 14.2822 216.629H18.7119C18.7061 216.143 18.624 215.712 18.4658 215.337C18.3135 214.962 18.0791 214.669 17.7627 214.458C17.4521 214.247 17.0537 214.142 16.5674 214.142ZM27.9932 212.586C28.1572 212.586 28.3359 212.595 28.5293 212.612C28.7227 212.63 28.8896 212.653 29.0303 212.683L28.8369 214.616C28.7139 214.581 28.5615 214.555 28.3799 214.537C28.2041 214.52 28.0459 214.511 27.9053 214.511C27.5361 214.511 27.1846 214.572 26.8506 214.695C26.5166 214.812 26.2207 214.994 25.9629 215.24C25.7051 215.48 25.5029 215.782 25.3564 216.146C25.21 216.509 25.1367 216.931 25.1367 217.411V222.5H23.0625V212.771H24.6797L24.9609 214.484H25.0576C25.251 214.139 25.4912 213.822 25.7783 213.535C26.0654 213.248 26.3936 213.02 26.7627 212.85C27.1377 212.674 27.5479 212.586 27.9932 212.586ZM35.6924 214.344H33.3281V222.5H31.2627V214.344H29.6719V213.351L31.2627 212.744V212.067C31.2627 211.241 31.3916 210.585 31.6494 210.099C31.9131 209.612 32.2881 209.264 32.7744 209.053C33.2666 208.836 33.8525 208.728 34.5322 208.728C34.9775 208.728 35.3848 208.766 35.7539 208.842C36.123 208.912 36.4336 208.994 36.6855 209.088L36.1494 210.652C35.9502 210.588 35.7275 210.529 35.4814 210.477C35.2354 210.418 34.9717 210.389 34.6904 210.389C34.2217 210.389 33.876 210.535 33.6533 210.828C33.4365 211.121 33.3281 211.549 33.3281 212.111V212.771H35.6924V214.344ZM41.2295 212.586C42.0967 212.586 42.8408 212.765 43.4619 213.122C44.083 213.479 44.5605 213.986 44.8945 214.643C45.2285 215.299 45.3955 216.084 45.3955 216.998V218.105H38.9004C38.9238 219.049 39.1758 219.775 39.6562 220.285C40.1426 220.795 40.8223 221.05 41.6953 221.05C42.3164 221.05 42.873 220.991 43.3652 220.874C43.8633 220.751 44.376 220.572 44.9033 220.338V222.017C44.417 222.245 43.9219 222.412 43.418 222.518C42.9141 222.623 42.3105 222.676 41.6074 222.676C40.6523 222.676 39.8115 222.491 39.085 222.122C38.3643 221.747 37.7988 221.19 37.3887 220.452C36.9844 219.714 36.7822 218.797 36.7822 217.701C36.7822 216.611 36.9668 215.686 37.3359 214.924C37.7051 214.162 38.2236 213.582 38.8916 213.184C39.5596 212.785 40.3389 212.586 41.2295 212.586ZM41.2295 214.142C40.5791 214.142 40.0518 214.353 39.6475 214.774C39.249 215.196 39.0146 215.814 38.9443 216.629H43.374C43.3682 216.143 43.2861 215.712 43.1279 215.337C42.9756 214.962 42.7412 214.669 42.4248 214.458C42.1143 214.247 41.7158 214.142 41.2295 214.142ZM51.6445 222.676C50.7246 222.676 49.9277 222.497 49.2539 222.14C48.5801 221.782 48.0615 221.234 47.6982 220.496C47.335 219.758 47.1533 218.82 47.1533 217.684C47.1533 216.5 47.3525 215.533 47.751 214.783C48.1494 214.033 48.7002 213.479 49.4033 213.122C50.1123 212.765 50.9238 212.586 51.8379 212.586C52.418 212.586 52.9424 212.645 53.4111 212.762C53.8857 212.873 54.2871 213.011 54.6152 213.175L54 214.827C53.6426 214.681 53.2764 214.558 52.9014 214.458C52.5264 214.358 52.166 214.309 51.8203 214.309C51.252 214.309 50.7773 214.435 50.3965 214.687C50.0215 214.938 49.7402 215.313 49.5527 215.812C49.3711 216.31 49.2803 216.928 49.2803 217.666C49.2803 218.381 49.374 218.984 49.5615 219.477C49.749 219.963 50.0273 220.332 50.3965 220.584C50.7656 220.83 51.2197 220.953 51.7588 220.953C52.292 220.953 52.7695 220.889 53.1914 220.76C53.6133 220.631 54.0117 220.464 54.3867 220.259V222.052C54.0176 222.263 53.6221 222.418 53.2002 222.518C52.7783 222.623 52.2598 222.676 51.6445 222.676ZM60.293 221.006C60.5625 221.006 60.8291 220.982 61.0928 220.936C61.3564 220.883 61.5967 220.821 61.8135 220.751V222.315C61.585 222.415 61.2891 222.5 60.9258 222.57C60.5625 222.641 60.1846 222.676 59.792 222.676C59.2412 222.676 58.7461 222.585 58.3066 222.403C57.8672 222.216 57.5186 221.896 57.2607 221.445C57.0029 220.994 56.874 220.37 56.874 219.573V214.344H55.5469V213.421L56.9707 212.691L57.6475 210.608H58.9482V212.771H61.7344V214.344H58.9482V219.547C58.9482 220.039 59.0713 220.405 59.3174 220.646C59.5635 220.886 59.8887 221.006 60.293 221.006ZM75.0059 219.723C75.0059 220.361 74.8506 220.9 74.54 221.34C74.2295 221.779 73.7754 222.113 73.1777 222.342C72.5859 222.564 71.8594 222.676 70.998 222.676C70.3184 222.676 69.7324 222.626 69.2402 222.526C68.7539 222.433 68.2939 222.286 67.8604 222.087V220.303C68.3232 220.52 68.8418 220.707 69.416 220.865C69.9961 221.023 70.5439 221.103 71.0596 221.103C71.7393 221.103 72.2285 220.997 72.5273 220.786C72.8262 220.569 72.9756 220.282 72.9756 219.925C72.9756 219.714 72.9141 219.526 72.791 219.362C72.6738 219.192 72.4512 219.02 72.123 218.844C71.8008 218.662 71.3262 218.445 70.6992 218.193C70.084 217.947 69.5654 217.701 69.1436 217.455C68.7217 217.209 68.4023 216.913 68.1855 216.567C67.9688 216.216 67.8604 215.768 67.8604 215.223C67.8604 214.361 68.2002 213.708 68.8799 213.263C69.5654 212.812 70.4707 212.586 71.5957 212.586C72.1934 212.586 72.7559 212.647 73.2832 212.771C73.8164 212.888 74.3379 213.061 74.8477 213.289L74.1973 214.845C73.7578 214.651 73.3154 214.493 72.8701 214.37C72.4307 214.241 71.9824 214.177 71.5254 214.177C70.9922 214.177 70.585 214.259 70.3037 214.423C70.0283 214.587 69.8906 214.821 69.8906 215.126C69.8906 215.354 69.958 215.548 70.0928 215.706C70.2275 215.864 70.459 216.022 70.7871 216.181C71.1211 216.339 71.584 216.535 72.1758 216.77C72.7559 216.992 73.2568 217.227 73.6787 217.473C74.1064 217.713 74.4346 218.009 74.6631 218.36C74.8916 218.712 75.0059 219.166 75.0059 219.723ZM79.3125 222.5H77.2383V208.824H79.3125V222.5ZM84.3311 212.771V222.5H82.2656V212.771H84.3311ZM83.3115 209.044C83.6279 209.044 83.9004 209.129 84.1289 209.299C84.3633 209.469 84.4805 209.762 84.4805 210.178C84.4805 210.588 84.3633 210.881 84.1289 211.057C83.9004 211.227 83.6279 211.312 83.3115 211.312C82.9834 211.312 82.7051 211.227 82.4766 211.057C82.2539 210.881 82.1426 210.588 82.1426 210.178C82.1426 209.762 82.2539 209.469 82.4766 209.299C82.7051 209.129 82.9834 209.044 83.3115 209.044ZM91.2129 222.676C90.293 222.676 89.4961 222.497 88.8223 222.14C88.1484 221.782 87.6299 221.234 87.2666 220.496C86.9033 219.758 86.7217 218.82 86.7217 217.684C86.7217 216.5 86.9209 215.533 87.3193 214.783C87.7178 214.033 88.2686 213.479 88.9717 213.122C89.6807 212.765 90.4922 212.586 91.4062 212.586C91.9863 212.586 92.5107 212.645 92.9795 212.762C93.4541 212.873 93.8555 213.011 94.1836 213.175L93.5684 214.827C93.2109 214.681 92.8447 214.558 92.4697 214.458C92.0947 214.358 91.7344 214.309 91.3887 214.309C90.8203 214.309 90.3457 214.435 89.9648 214.687C89.5898 214.938 89.3086 215.313 89.1211 215.812C88.9395 216.31 88.8486 216.928 88.8486 217.666C88.8486 218.381 88.9424 218.984 89.1299 219.477C89.3174 219.963 89.5957 220.332 89.9648 220.584C90.334 220.83 90.7881 220.953 91.3271 220.953C91.8604 220.953 92.3379 220.889 92.7598 220.76C93.1816 220.631 93.5801 220.464 93.9551 220.259V222.052C93.5859 222.263 93.1904 222.418 92.7686 222.518C92.3467 222.623 91.8281 222.676 91.2129 222.676ZM100.116 212.586C100.983 212.586 101.728 212.765 102.349 213.122C102.97 213.479 103.447 213.986 103.781 214.643C104.115 215.299 104.282 216.084 104.282 216.998V218.105H97.7871C97.8105 219.049 98.0625 219.775 98.543 220.285C99.0293 220.795 99.709 221.05 100.582 221.05C101.203 221.05 101.76 220.991 102.252 220.874C102.75 220.751 103.263 220.572 103.79 220.338V222.017C103.304 222.245 102.809 222.412 102.305 222.518C101.801 222.623 101.197 222.676 100.494 222.676C99.5391 222.676 98.6982 222.491 97.9717 222.122C97.251 221.747 96.6855 221.19 96.2754 220.452C95.8711 219.714 95.6689 218.797 95.6689 217.701C95.6689 216.611 95.8535 215.686 96.2227 214.924C96.5918 214.162 97.1104 213.582 97.7783 213.184C98.4463 212.785 99.2256 212.586 100.116 212.586ZM100.116 214.142C99.4658 214.142 98.9385 214.353 98.5342 214.774C98.1357 215.196 97.9014 215.814 97.8311 216.629H102.261C102.255 216.143 102.173 215.712 102.015 215.337C101.862 214.962 101.628 214.669 101.312 214.458C101.001 214.247 100.603 214.142 100.116 214.142ZM119.9 217.613C119.9 218.422 119.795 219.14 119.584 219.767C119.373 220.394 119.065 220.924 118.661 221.357C118.257 221.785 117.771 222.113 117.202 222.342C116.634 222.564 115.992 222.676 115.277 222.676C114.609 222.676 113.997 222.564 113.44 222.342C112.884 222.113 112.4 221.785 111.99 221.357C111.586 220.924 111.272 220.394 111.05 219.767C110.827 219.14 110.716 218.422 110.716 217.613C110.716 216.541 110.9 215.633 111.27 214.889C111.645 214.139 112.178 213.567 112.869 213.175C113.561 212.782 114.384 212.586 115.339 212.586C116.235 212.586 117.026 212.782 117.712 213.175C118.397 213.567 118.934 214.139 119.32 214.889C119.707 215.639 119.9 216.547 119.9 217.613ZM112.843 217.613C112.843 218.322 112.928 218.929 113.098 219.433C113.273 219.937 113.543 220.323 113.906 220.593C114.27 220.856 114.738 220.988 115.312 220.988C115.887 220.988 116.355 220.856 116.719 220.593C117.082 220.323 117.349 219.937 117.519 219.433C117.688 218.929 117.773 218.322 117.773 217.613C117.773 216.904 117.688 216.304 117.519 215.812C117.349 215.313 117.082 214.936 116.719 214.678C116.355 214.414 115.884 214.282 115.304 214.282C114.448 214.282 113.824 214.569 113.432 215.144C113.039 215.718 112.843 216.541 112.843 217.613ZM127.134 214.344H124.77V222.5H122.704V214.344H121.113V213.351L122.704 212.744V212.067C122.704 211.241 122.833 210.585 123.091 210.099C123.354 209.612 123.729 209.264 124.216 209.053C124.708 208.836 125.294 208.728 125.974 208.728C126.419 208.728 126.826 208.766 127.195 208.842C127.564 208.912 127.875 208.994 128.127 209.088L127.591 210.652C127.392 210.588 127.169 210.529 126.923 210.477C126.677 210.418 126.413 210.389 126.132 210.389C125.663 210.389 125.317 210.535 125.095 210.828C124.878 211.121 124.77 211.549 124.77 212.111V212.771H127.134V214.344ZM144.114 215.952C144.114 217.399 143.845 218.609 143.306 219.582C142.767 220.549 141.984 221.278 140.959 221.771C139.934 222.257 138.697 222.5 137.25 222.5H133.682V209.65H137.637C138.967 209.65 140.115 209.891 141.082 210.371C142.049 210.846 142.796 211.552 143.323 212.489C143.851 213.421 144.114 214.575 144.114 215.952ZM141.917 216.014C141.917 214.959 141.75 214.092 141.416 213.412C141.088 212.732 140.602 212.229 139.957 211.9C139.318 211.566 138.53 211.399 137.593 211.399H135.791V220.733H137.285C138.838 220.733 139.998 220.338 140.766 219.547C141.533 218.756 141.917 217.578 141.917 216.014ZM155.285 217.613C155.285 218.422 155.18 219.14 154.969 219.767C154.758 220.394 154.45 220.924 154.046 221.357C153.642 221.785 153.155 222.113 152.587 222.342C152.019 222.564 151.377 222.676 150.662 222.676C149.994 222.676 149.382 222.564 148.825 222.342C148.269 222.113 147.785 221.785 147.375 221.357C146.971 220.924 146.657 220.394 146.435 219.767C146.212 219.14 146.101 218.422 146.101 217.613C146.101 216.541 146.285 215.633 146.654 214.889C147.029 214.139 147.562 213.567 148.254 213.175C148.945 212.782 149.769 212.586 150.724 212.586C151.62 212.586 152.411 212.782 153.097 213.175C153.782 213.567 154.318 214.139 154.705 214.889C155.092 215.639 155.285 216.547 155.285 217.613ZM148.228 217.613C148.228 218.322 148.312 218.929 148.482 219.433C148.658 219.937 148.928 220.323 149.291 220.593C149.654 220.856 150.123 220.988 150.697 220.988C151.271 220.988 151.74 220.856 152.104 220.593C152.467 220.323 152.733 219.937 152.903 219.433C153.073 218.929 153.158 218.322 153.158 217.613C153.158 216.904 153.073 216.304 152.903 215.812C152.733 215.313 152.467 214.936 152.104 214.678C151.74 214.414 151.269 214.282 150.688 214.282C149.833 214.282 149.209 214.569 148.816 215.144C148.424 215.718 148.228 216.541 148.228 217.613ZM164.197 219.723C164.197 220.361 164.042 220.9 163.731 221.34C163.421 221.779 162.967 222.113 162.369 222.342C161.777 222.564 161.051 222.676 160.189 222.676C159.51 222.676 158.924 222.626 158.432 222.526C157.945 222.433 157.485 222.286 157.052 222.087V220.303C157.515 220.52 158.033 220.707 158.607 220.865C159.188 221.023 159.735 221.103 160.251 221.103C160.931 221.103 161.42 220.997 161.719 220.786C162.018 220.569 162.167 220.282 162.167 219.925C162.167 219.714 162.105 219.526 161.982 219.362C161.865 219.192 161.643 219.02 161.314 218.844C160.992 218.662 160.518 218.445 159.891 218.193C159.275 217.947 158.757 217.701 158.335 217.455C157.913 217.209 157.594 216.913 157.377 216.567C157.16 216.216 157.052 215.768 157.052 215.223C157.052 214.361 157.392 213.708 158.071 213.263C158.757 212.812 159.662 212.586 160.787 212.586C161.385 212.586 161.947 212.647 162.475 212.771C163.008 212.888 163.529 213.061 164.039 213.289L163.389 214.845C162.949 214.651 162.507 214.493 162.062 214.37C161.622 214.241 161.174 214.177 160.717 214.177C160.184 214.177 159.776 214.259 159.495 214.423C159.22 214.587 159.082 214.821 159.082 215.126C159.082 215.354 159.149 215.548 159.284 215.706C159.419 215.864 159.65 216.022 159.979 216.181C160.312 216.339 160.775 216.535 161.367 216.77C161.947 216.992 162.448 217.227 162.87 217.473C163.298 217.713 163.626 218.009 163.854 218.36C164.083 218.712 164.197 219.166 164.197 219.723ZM170.244 212.586C171.475 212.586 172.403 212.858 173.03 213.403C173.663 213.948 173.979 214.798 173.979 215.952V222.5H172.512L172.116 221.12H172.046C171.771 221.472 171.486 221.762 171.193 221.99C170.9 222.219 170.561 222.389 170.174 222.5C169.793 222.617 169.327 222.676 168.776 222.676C168.196 222.676 167.678 222.57 167.221 222.359C166.764 222.143 166.403 221.814 166.14 221.375C165.876 220.936 165.744 220.379 165.744 219.705C165.744 218.703 166.116 217.95 166.86 217.446C167.61 216.942 168.741 216.664 170.253 216.611L171.94 216.55V216.04C171.94 215.366 171.782 214.886 171.466 214.599C171.155 214.312 170.716 214.168 170.147 214.168C169.661 214.168 169.189 214.238 168.732 214.379C168.275 214.52 167.83 214.692 167.396 214.897L166.729 213.438C167.203 213.187 167.742 212.981 168.346 212.823C168.955 212.665 169.588 212.586 170.244 212.586ZM171.932 217.851L170.675 217.895C169.644 217.93 168.92 218.105 168.504 218.422C168.088 218.738 167.88 219.172 167.88 219.723C167.88 220.203 168.023 220.555 168.311 220.777C168.598 220.994 168.976 221.103 169.444 221.103C170.159 221.103 170.751 220.9 171.22 220.496C171.694 220.086 171.932 219.485 171.932 218.694V217.851ZM176.572 221.41C176.572 220.93 176.695 220.593 176.941 220.399C177.193 220.2 177.498 220.101 177.855 220.101C178.213 220.101 178.518 220.2 178.77 220.399C179.027 220.593 179.156 220.93 179.156 221.41C179.156 221.879 179.027 222.219 178.77 222.43C178.518 222.635 178.213 222.737 177.855 222.737C177.498 222.737 177.193 222.635 176.941 222.43C176.695 222.219 176.572 221.879 176.572 221.41Z" fill="#616161" fill-opacity="0.69"/>
</svg>
