<svg width="102" height="24" viewBox="0 0 102 24" fill="none" xmlns="http://www.w3.org/2000/svg">
<g opacity="0.31">
<path d="M11.5 6.60938C8.5 6.60938 6.10938 9.04688 6.10938 12C6.10938 15 8.5 17.3906 11.5 17.3906C14.4531 17.3906 16.8906 15 16.8906 12C16.8906 9.04688 14.4531 6.60938 11.5 6.60938ZM11.5 15.5156C9.57812 15.5156 7.98438 13.9688 7.98438 12C7.98438 10.0781 9.53125 8.53125 11.5 8.53125C13.4219 8.53125 14.9688 10.0781 14.9688 12C14.9688 13.9688 13.4219 15.5156 11.5 15.5156ZM18.3438 6.42188C18.3438 5.71875 17.7812 5.15625 17.0781 5.15625C16.375 5.15625 15.8125 5.71875 15.8125 6.42188C15.8125 7.125 16.375 7.6875 17.0781 7.6875C17.7812 7.6875 18.3438 7.125 18.3438 6.42188ZM21.9062 7.6875C21.8125 6 21.4375 4.5 20.2188 3.28125C19 2.0625 17.5 1.6875 15.8125 1.59375C14.0781 1.5 8.875 1.5 7.14062 1.59375C5.45312 1.6875 4 2.0625 2.73438 3.28125C1.51562 4.5 1.14062 6 1.04688 7.6875C0.953125 9.42188 0.953125 14.625 1.04688 16.3594C1.14062 18.0469 1.51562 19.5 2.73438 20.7656C4 21.9844 5.45312 22.3594 7.14062 22.4531C8.875 22.5469 14.0781 22.5469 15.8125 22.4531C17.5 22.3594 19 21.9844 20.2188 20.7656C21.4375 19.5 21.8125 18.0469 21.9062 16.3594C22 14.625 22 9.42188 21.9062 7.6875ZM19.6562 18.1875C19.3281 19.125 18.5781 19.8281 17.6875 20.2031C16.2812 20.7656 13 20.625 11.5 20.625C9.95312 20.625 6.67188 20.7656 5.3125 20.2031C4.375 19.8281 3.67188 19.125 3.29688 18.1875C2.73438 16.8281 2.875 13.5469 2.875 12C2.875 10.5 2.73438 7.21875 3.29688 5.8125C3.67188 4.92188 4.375 4.21875 5.3125 3.84375C6.67188 3.28125 9.95312 3.42188 11.5 3.42188C13 3.42188 16.2812 3.28125 17.6875 3.84375C18.5781 4.17188 19.2812 4.92188 19.6562 5.8125C20.2188 7.21875 20.0781 10.5 20.0781 12C20.0781 13.5469 20.2188 16.8281 19.6562 18.1875Z" fill="#F5F5F5"/>
<path d="M61.625 12C61.625 5.57812 56.4219 0.375 50 0.375C43.5781 0.375 38.375 5.57812 38.375 12C38.375 17.8125 42.5938 22.6406 48.1719 23.4844V15.375H45.2188V12H48.1719V9.46875C48.1719 6.5625 49.9062 4.92188 52.5312 4.92188C53.8438 4.92188 55.1562 5.15625 55.1562 5.15625V8.01562H53.7031C52.25 8.01562 51.7812 8.90625 51.7812 9.84375V12H55.0156L54.5 15.375H51.7812V23.4844C57.3594 22.6406 61.625 17.8125 61.625 12Z" fill="#F5F5F5"/>
<path d="M99.5156 7.125C100.453 6.42188 101.297 5.57812 101.953 4.59375C101.109 4.96875 100.125 5.25 99.1406 5.34375C100.172 4.73438 100.922 3.79688 101.297 2.625C100.359 3.1875 99.2812 3.60938 98.2031 3.84375C97.2656 2.85938 96 2.29688 94.5938 2.29688C91.875 2.29688 89.6719 4.5 89.6719 7.21875C89.6719 7.59375 89.7188 7.96875 89.8125 8.34375C85.7344 8.10938 82.0781 6.14062 79.6406 3.1875C79.2188 3.89062 78.9844 4.73438 78.9844 5.67188C78.9844 7.35938 79.8281 8.85938 81.1875 9.75C80.3906 9.70312 79.5938 9.51562 78.9375 9.14062V9.1875C78.9375 11.5781 80.625 13.5469 82.875 14.0156C82.5 14.1094 82.0312 14.2031 81.6094 14.2031C81.2812 14.2031 81 14.1562 80.6719 14.1094C81.2812 16.0781 83.1094 17.4844 85.2656 17.5312C83.5781 18.8438 81.4688 19.6406 79.1719 19.6406C78.75 19.6406 78.375 19.5938 78 19.5469C80.1562 20.9531 82.7344 21.75 85.5469 21.75C94.5938 21.75 99.5156 14.2969 99.5156 7.78125C99.5156 7.54688 99.5156 7.35938 99.5156 7.125Z" fill="#F5F5F5"/>
</g>
</svg>
