<svg width="297" height="207" viewBox="0 0 297 207" fill="none" xmlns="http://www.w3.org/2000/svg">
<g filter="url(#filter0_d_0_281)">
<path fill-rule="evenodd" clip-rule="evenodd" d="M222.421 68.1971C237.481 68.1971 249.689 55.989 249.689 40.9296C249.689 25.8702 237.481 13.6621 222.421 13.6621C207.362 13.6621 195.154 25.8702 195.154 40.9296C195.154 55.989 207.362 68.1971 222.421 68.1971Z" fill="white"/>
</g>
<path d="M236.245 34.3303C235.451 34.6774 234.606 34.9075 233.725 35.0193C234.631 34.4792 235.323 33.6306 235.649 32.6078C234.803 33.1105 233.87 33.4657 232.875 33.6639C232.073 32.8113 230.929 32.2832 229.681 32.2832C227.259 32.2832 225.31 34.2438 225.31 36.6473C225.31 36.9932 225.339 37.3257 225.411 37.6423C221.775 37.4654 218.558 35.7269 216.397 33.0786C216.019 33.7317 215.798 34.4792 215.798 35.284C215.798 36.795 216.578 38.1344 217.741 38.9099C217.038 38.8966 216.349 38.6931 215.765 38.3725C215.765 38.3858 215.765 38.4031 215.765 38.4204C215.765 40.5406 217.281 42.3017 219.269 42.7074C218.913 42.8045 218.525 42.851 218.122 42.851C217.842 42.851 217.559 42.8351 217.294 42.7765C217.861 44.5044 219.469 45.7746 221.381 45.8159C219.893 46.9771 218.003 47.6767 215.958 47.6767C215.599 47.6767 215.255 47.6607 214.911 47.6168C216.849 48.8632 219.145 49.5748 221.621 49.5748C229.669 49.5748 234.069 42.9242 234.069 37.1594C234.069 36.9666 234.062 36.7803 234.053 36.5955C234.921 35.9809 235.65 35.2135 236.245 34.3303Z" fill="#080809"/>
<g filter="url(#filter1_d_0_281)">
<path fill-rule="evenodd" clip-rule="evenodd" d="M41.5249 65.535C56.5844 65.535 68.7924 53.3269 68.7924 38.2675C68.7924 23.2081 56.5844 11 41.5249 11C26.4655 11 14.2574 23.2081 14.2574 38.2675C14.2574 53.3269 26.4655 65.535 41.5249 65.535Z" fill="white"/>
</g>
<path fill-rule="evenodd" clip-rule="evenodd" d="M44.9945 35.2686C44.5688 35.1339 44.0792 35.0441 43.6322 35.0441C43.0788 35.0441 41.8867 35.4257 41.8867 36.1665V37.9398H44.7178V40.9252H41.8867V49.1631H39.0344V40.9252H37.6295V37.9398H39.0344V36.4358C39.0344 34.1687 40.0136 32.2832 42.3763 32.2832C43.1852 32.2832 44.6326 32.3281 45.4202 32.6199L44.9945 35.2686Z" fill="#080809"/>
<g filter="url(#filter2_d_0_281)">
<path fill-rule="evenodd" clip-rule="evenodd" d="M131.973 70.8555C148.502 70.8555 161.901 57.4564 161.901 40.9277C161.901 24.3991 148.502 11 131.973 11C115.445 11 102.045 24.3991 102.045 40.9277C102.045 57.4564 115.445 70.8555 131.973 70.8555Z" fill="url(#paint0_angular_0_281)"/>
</g>
<g clip-path="url(#clip0_0_281)">
<path d="M140.162 29.6196H125.115C123.396 29.6196 121.998 31.0183 121.998 32.7371V47.7841C121.998 49.5033 123.396 50.9016 125.115 50.9016H140.162C141.881 50.9016 143.28 49.5033 143.28 47.7841V32.7371C143.28 31.0183 141.881 29.6196 140.162 29.6196ZM142.033 47.7841C142.033 48.8154 141.193 49.6546 140.162 49.6546H125.115C124.084 49.6546 123.245 48.8154 123.245 47.7841V32.7371C123.245 31.7058 124.084 30.8666 125.115 30.8666H140.162C141.193 30.8666 142.033 31.7058 142.033 32.7371V47.7841Z" fill="white"/>
<path d="M139.497 32.1558C138.809 32.1558 138.25 32.7152 138.25 33.4028C138.25 34.0903 138.809 34.6497 139.497 34.6497C140.184 34.6497 140.744 34.0903 140.744 33.4028C140.744 32.7152 140.184 32.1558 139.497 32.1558Z" fill="white"/>
<path d="M132.638 34.6509C129.544 34.6509 127.027 37.1681 127.027 40.2623C127.027 43.3565 129.544 45.8738 132.638 45.8738C135.733 45.8738 138.25 43.3565 138.25 40.2623C138.25 37.1681 135.733 34.6509 132.638 34.6509ZM132.638 44.6268C130.232 44.6268 128.274 42.669 128.274 40.2623C128.274 37.8556 130.232 35.8979 132.638 35.8979C135.045 35.8979 137.003 37.8556 137.003 40.2623C137.003 42.669 135.045 44.6268 132.638 44.6268Z" fill="white"/>
</g>
<path d="M22.2915 112.95C24.2601 112.95 25.9804 113.331 27.4524 114.094C28.9421 114.839 30.086 115.92 30.8841 117.339C31.6999 118.74 32.1078 120.381 32.1078 122.261C32.1078 124.141 31.6999 125.772 30.8841 127.155C30.086 128.539 28.9421 129.603 27.4524 130.348C25.9804 131.075 24.2601 131.438 22.2915 131.438H16.2528V112.95H22.2915ZM22.2915 128.964C24.4552 128.964 26.1134 128.379 27.2662 127.209C28.4189 126.038 28.9953 124.389 28.9953 122.261C28.9953 120.115 28.4189 118.439 27.2662 117.233C26.1134 116.027 24.4552 115.424 22.2915 115.424H19.2854V128.964H22.2915ZM36.7894 114.839C36.2396 114.839 35.7785 114.652 35.4061 114.28C35.0337 113.907 34.8474 113.446 34.8474 112.897C34.8474 112.347 35.0337 111.886 35.4061 111.513C35.7785 111.141 36.2396 110.955 36.7894 110.955C37.3215 110.955 37.7737 111.141 38.1461 111.513C38.5186 111.886 38.7048 112.347 38.7048 112.897C38.7048 113.446 38.5186 113.907 38.1461 114.28C37.7737 114.652 37.3215 114.839 36.7894 114.839ZM38.2791 116.781V131.438H35.2465V116.781H38.2791ZM47.7143 131.678C46.5615 131.678 45.524 131.474 44.6018 131.066C43.6973 130.64 42.979 130.073 42.447 129.363C41.915 128.636 41.6312 127.829 41.5957 126.943H44.7348C44.788 127.563 45.0806 128.087 45.6127 128.512C46.1625 128.92 46.8453 129.124 47.6611 129.124C48.5124 129.124 49.1685 128.964 49.6297 128.645C50.1085 128.308 50.3479 127.883 50.3479 127.368C50.3479 126.819 50.0819 126.411 49.5498 126.145C49.0355 125.879 48.2109 125.586 47.0758 125.267C45.9763 124.965 45.0806 124.673 44.389 124.389C43.6973 124.105 43.0943 123.671 42.58 123.085C42.0834 122.5 41.8351 121.729 41.8351 120.771C41.8351 119.991 42.0657 119.281 42.5268 118.643C42.9879 117.987 43.6441 117.472 44.4954 117.1C45.3644 116.727 46.3576 116.541 47.4749 116.541C49.1419 116.541 50.4809 116.967 51.4918 117.818C52.5205 118.652 53.0702 119.795 53.1412 121.25H50.1085C50.0553 120.594 49.7893 120.07 49.3104 119.68C48.8316 119.29 48.1843 119.095 47.3685 119.095C46.5704 119.095 45.9585 119.246 45.5329 119.547C45.1072 119.849 44.8944 120.248 44.8944 120.744C44.8944 121.134 45.0363 121.463 45.3201 121.729C45.6038 121.995 45.9497 122.207 46.3576 122.367C46.7655 122.509 47.3685 122.695 48.1665 122.926C49.2306 123.209 50.0996 123.502 50.7736 123.804C51.4652 124.087 52.0593 124.513 52.5559 125.08C53.0525 125.648 53.3097 126.402 53.3274 127.342C53.3274 128.175 53.0968 128.92 52.6357 129.576C52.1746 130.232 51.5184 130.747 50.6672 131.119C49.8336 131.492 48.8493 131.678 47.7143 131.678ZM55.7264 124.096C55.7264 122.589 56.0279 121.267 56.6309 120.132C57.2516 118.98 58.1029 118.093 59.1847 117.472C60.2665 116.851 61.508 116.541 62.909 116.541C64.6825 116.541 66.1457 116.967 67.2985 117.818C68.469 118.652 69.2582 119.849 69.6661 121.409H66.394C66.1279 120.682 65.7023 120.115 65.1171 119.707C64.5318 119.299 63.7958 119.095 62.909 119.095C61.6676 119.095 60.6744 119.538 59.9296 120.425C59.2024 121.294 58.8389 122.518 58.8389 124.096C58.8389 125.675 59.2024 126.907 59.9296 127.794C60.6744 128.681 61.6676 129.124 62.909 129.124C64.6648 129.124 65.8265 128.353 66.394 126.81H69.6661C69.2404 128.299 68.4424 129.488 67.2718 130.374C66.1013 131.243 64.6471 131.678 62.909 131.678C61.508 131.678 60.2665 131.368 59.1847 130.747C58.1029 130.108 57.2516 129.222 56.6309 128.087C56.0279 126.934 55.7264 125.604 55.7264 124.096ZM79.1793 131.678C77.796 131.678 76.5457 131.368 75.4284 130.747C74.3111 130.108 73.4332 129.222 72.7948 128.087C72.1563 126.934 71.8371 125.604 71.8371 124.096C71.8371 122.606 72.1652 121.285 72.8214 120.132C73.4776 118.98 74.3732 118.093 75.5082 117.472C76.6432 116.851 77.9113 116.541 79.3124 116.541C80.7134 116.541 81.9815 116.851 83.1165 117.472C84.2515 118.093 85.1472 118.98 85.8034 120.132C86.4595 121.285 86.7876 122.606 86.7876 124.096C86.7876 125.586 86.4507 126.907 85.7768 128.06C85.1028 129.213 84.1806 130.108 83.0101 130.747C81.8573 131.368 80.5804 131.678 79.1793 131.678ZM79.1793 129.044C79.9597 129.044 80.6868 128.858 81.3607 128.486C82.0524 128.113 82.6111 127.555 83.0367 126.81C83.4623 126.065 83.6752 125.16 83.6752 124.096C83.6752 123.032 83.4712 122.136 83.0633 121.409C82.6554 120.664 82.1145 120.106 81.4406 119.733C80.7666 119.361 80.0395 119.175 79.2592 119.175C78.4788 119.175 77.7517 119.361 77.0778 119.733C76.4216 120.106 75.8984 120.664 75.5082 121.409C75.118 122.136 74.923 123.032 74.923 124.096C74.923 125.675 75.322 126.898 76.1201 127.767C76.9359 128.619 77.9556 129.044 79.1793 129.044ZM95.5849 128.725L99.7349 116.781H102.954L97.3673 131.438H93.7494L88.1895 116.781H91.435L95.5849 128.725ZM118.813 123.75C118.813 124.3 118.778 124.797 118.707 125.24H107.507C107.596 126.411 108.031 127.351 108.811 128.06C109.591 128.769 110.549 129.124 111.684 129.124C113.316 129.124 114.468 128.441 115.142 127.076H118.414C117.971 128.424 117.164 129.532 115.994 130.401C114.841 131.252 113.404 131.678 111.684 131.678C110.283 131.678 109.024 131.368 107.906 130.747C106.807 130.108 105.938 129.222 105.299 128.087C104.679 126.934 104.368 125.604 104.368 124.096C104.368 122.589 104.67 121.267 105.273 120.132C105.894 118.98 106.754 118.093 107.853 117.472C108.971 116.851 110.247 116.541 111.684 116.541C113.067 116.541 114.3 116.843 115.382 117.446C116.464 118.049 117.306 118.9 117.909 119.999C118.512 121.081 118.813 122.332 118.813 123.75ZM115.648 122.793C115.63 121.675 115.231 120.78 114.451 120.106C113.67 119.432 112.704 119.095 111.551 119.095C110.505 119.095 109.609 119.432 108.864 120.106C108.119 120.762 107.676 121.658 107.534 122.793H115.648ZM124.964 118.909C125.407 118.164 125.992 117.587 126.719 117.18C127.464 116.754 128.342 116.541 129.353 116.541V119.68H128.582C127.393 119.68 126.489 119.982 125.868 120.585C125.265 121.188 124.964 122.234 124.964 123.724V131.438H121.931V116.781H124.964V118.909ZM145.675 131.678C144.292 131.678 143.041 131.368 141.924 130.747C140.807 130.108 139.929 129.222 139.29 128.087C138.652 126.934 138.333 125.604 138.333 124.096C138.333 122.606 138.661 121.285 139.317 120.132C139.973 118.98 140.869 118.093 142.004 117.472C143.139 116.851 144.407 116.541 145.808 116.541C147.209 116.541 148.477 116.851 149.612 117.472C150.747 118.093 151.643 118.98 152.299 120.132C152.955 121.285 153.283 122.606 153.283 124.096C153.283 125.586 152.946 126.907 152.272 128.06C151.599 129.213 150.676 130.108 149.506 130.747C148.353 131.368 147.076 131.678 145.675 131.678ZM145.675 129.044C146.455 129.044 147.183 128.858 147.856 128.486C148.548 128.113 149.107 127.555 149.532 126.81C149.958 126.065 150.171 125.16 150.171 124.096C150.171 123.032 149.967 122.136 149.559 121.409C149.151 120.664 148.61 120.106 147.936 119.733C147.262 119.361 146.535 119.175 145.755 119.175C144.975 119.175 144.247 119.361 143.573 119.733C142.917 120.106 142.394 120.664 142.004 121.409C141.614 122.136 141.419 123.032 141.419 124.096C141.419 125.675 141.818 126.898 142.616 127.767C143.432 128.619 144.451 129.044 145.675 129.044ZM169.689 116.781V131.438H166.656V129.709C166.177 130.312 165.548 130.791 164.767 131.146C164.005 131.483 163.189 131.651 162.32 131.651C161.167 131.651 160.13 131.412 159.208 130.933C158.303 130.454 157.585 129.745 157.053 128.805C156.538 127.865 156.281 126.73 156.281 125.4V116.781H159.287V124.947C159.287 126.26 159.615 127.271 160.272 127.98C160.928 128.672 161.823 129.018 162.959 129.018C164.094 129.018 164.989 128.672 165.645 127.98C166.319 127.271 166.656 126.26 166.656 124.947V116.781H169.689ZM176.856 118.909C177.299 118.164 177.885 117.587 178.612 117.18C179.357 116.754 180.234 116.541 181.245 116.541V119.68H180.474C179.286 119.68 178.381 119.982 177.76 120.585C177.157 121.188 176.856 122.234 176.856 123.724V131.438H173.823V116.781H176.856V118.909ZM190.199 124.043C190.199 122.571 190.5 121.267 191.103 120.132C191.724 118.997 192.557 118.12 193.604 117.499C194.668 116.86 195.838 116.541 197.115 116.541C198.268 116.541 199.27 116.772 200.121 117.233C200.99 117.676 201.682 118.235 202.196 118.909V116.781H205.256V131.438H202.196V129.257C201.682 129.949 200.981 130.525 200.095 130.986C199.208 131.447 198.197 131.678 197.062 131.678C195.803 131.678 194.65 131.359 193.604 130.72C192.557 130.064 191.724 129.16 191.103 128.007C190.5 126.836 190.199 125.515 190.199 124.043ZM202.196 124.096C202.196 123.085 201.983 122.207 201.558 121.463C201.15 120.718 200.609 120.15 199.935 119.76C199.261 119.37 198.534 119.175 197.754 119.175C196.973 119.175 196.246 119.37 195.572 119.76C194.898 120.132 194.349 120.691 193.923 121.436C193.515 122.163 193.311 123.032 193.311 124.043C193.311 125.054 193.515 125.941 193.923 126.703C194.349 127.466 194.898 128.051 195.572 128.459C196.264 128.849 196.991 129.044 197.754 129.044C198.534 129.044 199.261 128.849 199.935 128.459C200.609 128.069 201.15 127.501 201.558 126.756C201.983 125.994 202.196 125.107 202.196 124.096ZM212.405 118.935C212.919 118.261 213.619 117.694 214.506 117.233C215.393 116.772 216.395 116.541 217.512 116.541C218.789 116.541 219.951 116.86 220.997 117.499C222.061 118.12 222.895 118.997 223.498 120.132C224.101 121.267 224.402 122.571 224.402 124.043C224.402 125.515 224.101 126.836 223.498 128.007C222.895 129.16 222.061 130.064 220.997 130.72C219.951 131.359 218.789 131.678 217.512 131.678C216.395 131.678 215.402 131.456 214.533 131.013C213.664 130.552 212.954 129.984 212.405 129.31V138.408H209.372V116.781H212.405V118.935ZM221.316 124.043C221.316 123.032 221.104 122.163 220.678 121.436C220.27 120.691 219.72 120.132 219.029 119.76C218.355 119.37 217.627 119.175 216.847 119.175C216.085 119.175 215.357 119.37 214.666 119.76C213.992 120.15 213.442 120.718 213.016 121.463C212.608 122.207 212.405 123.085 212.405 124.096C212.405 125.107 212.608 125.994 213.016 126.756C213.442 127.501 213.992 128.069 214.666 128.459C215.357 128.849 216.085 129.044 216.847 129.044C217.627 129.044 218.355 128.849 219.029 128.459C219.72 128.051 220.27 127.466 220.678 126.703C221.104 125.941 221.316 125.054 221.316 124.043ZM230.567 118.935C231.081 118.261 231.782 117.694 232.669 117.233C233.555 116.772 234.557 116.541 235.675 116.541C236.952 116.541 238.113 116.86 239.16 117.499C240.224 118.12 241.057 118.997 241.66 120.132C242.263 121.267 242.565 122.571 242.565 124.043C242.565 125.515 242.263 126.836 241.66 128.007C241.057 129.16 240.224 130.064 239.16 130.72C238.113 131.359 236.952 131.678 235.675 131.678C234.557 131.678 233.564 131.456 232.695 131.013C231.826 130.552 231.117 129.984 230.567 129.31V138.408H227.534V116.781H230.567V118.935ZM239.479 124.043C239.479 123.032 239.266 122.163 238.84 121.436C238.432 120.691 237.883 120.132 237.191 119.76C236.517 119.37 235.79 119.175 235.01 119.175C234.247 119.175 233.52 119.37 232.828 119.76C232.154 120.15 231.604 120.718 231.179 121.463C230.771 122.207 230.567 123.085 230.567 124.096C230.567 125.107 230.771 125.994 231.179 126.756C231.604 127.501 232.154 128.069 232.828 128.459C233.52 128.849 234.247 129.044 235.01 129.044C235.79 129.044 236.517 128.849 237.191 128.459C237.883 128.051 238.432 127.466 238.84 126.703C239.266 125.941 239.479 125.054 239.479 124.043Z" fill="#5E6282"/>
<rect x="11.5974" y="159.974" width="142.323" height="46.5543" rx="23.2771" fill="#080809"/>
<g clip-path="url(#clip1_0_281)">
<path d="M49.5156 182.587L36.1564 195.451C35.5308 195.023 35.1594 194.312 35.166 193.555V171.619C35.1594 170.862 35.5308 170.151 36.1564 169.723L49.5156 182.587Z" fill="#2196F3"/>
<path d="M54.19 178.095L49.5155 182.588L36.1564 169.724C36.2067 169.685 36.2591 169.649 36.3134 169.616C37.0194 169.188 37.9013 169.174 38.6204 169.579L54.19 178.095Z" fill="#4CAF50"/>
<path d="M59.8552 182.59C59.8639 183.445 59.3991 184.235 58.6473 184.643L54.1902 187.083L49.5157 182.59L54.1902 178.096L58.6473 180.536C59.3991 180.944 59.8639 181.734 59.8552 182.59Z" fill="#F0BB1F"/>
<path d="M54.19 187.082L38.6204 195.597C37.8997 195.996 37.0212 195.983 36.3134 195.561C36.2591 195.528 36.2067 195.491 36.1564 195.452L49.5155 182.588L54.19 187.082Z" fill="#F15A2B"/>
</g>
<path d="M75.4749 175.775H71.7399V177.265H73.7298C73.4638 177.978 72.8147 178.414 71.8251 178.414C70.3779 178.414 69.484 177.489 69.484 176.222C69.484 174.913 70.4205 173.988 71.6761 173.988C72.5167 173.988 73.1871 174.371 73.4957 174.86L74.9429 174.03C74.3151 173.03 73.1126 172.328 71.6867 172.328C69.4947 172.328 67.7815 174.051 67.7815 176.212C67.7815 178.35 69.4628 180.074 71.8038 180.074C73.8894 180.074 75.4749 178.691 75.4749 176.414V175.775Z" fill="white"/>
<path d="M77.6053 178.287V176.967H80.2655V175.35H77.6053V174.115H80.5315V172.477H75.9027V179.925H80.5847V178.287H77.6053Z" fill="white"/>
<path d="M86.0146 172.477H80.4812V174.115H82.3966V179.925H84.0992V174.115H86.0146V172.477Z" fill="white"/>
<path d="M88.356 172.477V179.925H90.0585V172.477H88.356Z" fill="white"/>
<path d="M95.8076 172.477H90.2743V174.115H92.1896V179.925H93.8922V174.115H95.8076V172.477Z" fill="white"/>
<path d="M101.703 180.074C103.842 180.074 105.576 178.393 105.576 176.201C105.576 174.009 103.842 172.328 101.703 172.328C99.5643 172.328 97.8298 174.009 97.8298 176.201C97.8298 178.393 99.5643 180.074 101.703 180.074ZM101.703 178.414C100.49 178.414 99.5323 177.531 99.5323 176.201C99.5323 174.871 100.49 173.988 101.703 173.988C102.916 173.988 103.874 174.871 103.874 176.201C103.874 177.531 102.916 178.414 101.703 178.414Z" fill="white"/>
<path d="M110.153 172.477V176.52L107.28 172.477H106.003V179.925H107.706V175.882L110.579 179.925H111.855V172.477H110.153Z" fill="white"/>
<path d="M75.4749 188.427V188.715C75.4749 189.644 75.145 190.428 74.4853 191.066C73.8256 191.698 72.9566 192.013 71.8783 192.013C70.7432 192.013 69.8068 191.645 69.0691 190.907C68.3313 190.162 67.9624 189.25 67.9624 188.172C67.9624 187.094 68.3277 186.186 69.0584 185.448C69.7891 184.703 70.7149 184.331 71.8357 184.331C72.5167 184.331 73.141 184.494 73.7085 184.82C74.2831 185.146 74.7265 185.583 75.0386 186.129L74.5385 186.427C74.2902 185.959 73.9213 185.583 73.4319 185.299C72.9495 185.015 72.4174 184.873 71.8357 184.873C70.8709 184.873 70.0764 185.193 69.4521 185.831C68.835 186.462 68.5264 187.243 68.5264 188.172C68.5264 189.101 68.8385 189.885 69.4628 190.524C70.087 191.155 70.8922 191.471 71.8783 191.471C72.7508 191.471 73.4567 191.233 73.9958 190.758C74.535 190.283 74.8365 189.683 74.9003 188.959H71.7399V188.427H75.4749Z" fill="white"/>
<path d="M83.0282 190.896C82.2833 191.641 81.3753 192.013 80.3041 192.013C79.2329 192.013 78.3249 191.641 77.58 190.896C76.8351 190.144 76.4627 189.236 76.4627 188.172C76.4627 187.108 76.8351 186.203 77.58 185.459C78.3249 184.707 79.2329 184.331 80.3041 184.331C81.3753 184.331 82.2833 184.707 83.0282 185.459C83.773 186.203 84.1455 187.108 84.1455 188.172C84.1455 189.236 83.773 190.144 83.0282 190.896ZM77.9737 190.513C78.6122 191.152 79.389 191.471 80.3041 191.471C81.2192 191.471 81.9925 191.152 82.6238 190.513C83.2623 189.868 83.5815 189.087 83.5815 188.172C83.5815 187.257 83.2623 186.48 82.6238 185.842C81.9925 185.196 81.2192 184.873 80.3041 184.873C79.389 184.873 78.6122 185.196 77.9737 185.842C77.3424 186.48 77.0267 187.257 77.0267 188.172C77.0267 189.087 77.3424 189.868 77.9737 190.513Z" fill="white"/>
<path d="M91.7155 190.896C90.9707 191.641 90.0626 192.013 88.9914 192.013C87.9203 192.013 87.0122 191.641 86.2674 190.896C85.5225 190.144 85.1501 189.236 85.1501 188.172C85.1501 187.108 85.5225 186.203 86.2674 185.459C87.0122 184.707 87.9203 184.331 88.9914 184.331C90.0626 184.331 90.9707 184.707 91.7155 185.459C92.4604 186.203 92.8328 187.108 92.8328 188.172C92.8328 189.236 92.4604 190.144 91.7155 190.896ZM86.6611 190.513C87.2995 191.152 88.0763 191.471 88.9914 191.471C89.9066 191.471 90.6798 191.152 91.3112 190.513C91.9496 189.868 92.2689 189.087 92.2689 188.172C92.2689 187.257 91.9496 186.48 91.3112 185.842C90.6798 185.196 89.9066 184.873 88.9914 184.873C88.0763 184.873 87.2995 185.196 86.6611 185.842C86.0297 186.48 85.714 187.257 85.714 188.172C85.714 189.087 86.0297 189.868 86.6611 190.513Z" fill="white"/>
<path d="M101.35 188.427V188.715C101.35 189.644 101.02 190.428 100.36 191.066C99.7006 191.698 98.8316 192.013 97.7533 192.013C96.6183 192.013 95.6818 191.645 94.9441 190.907C94.2063 190.162 93.8374 189.25 93.8374 188.172C93.8374 187.094 94.2027 186.186 94.9334 185.448C95.6641 184.703 96.5899 184.331 97.7107 184.331C98.3917 184.331 99.016 184.494 99.5835 184.82C100.158 185.146 100.602 185.583 100.914 186.129L100.414 186.427C100.165 185.959 99.7964 185.583 99.3069 185.299C98.8245 185.015 98.2924 184.873 97.7107 184.873C96.7459 184.873 95.9514 185.193 95.3271 185.831C94.71 186.462 94.4014 187.243 94.4014 188.172C94.4014 189.101 94.7135 189.885 95.3378 190.524C95.9621 191.155 96.7672 191.471 97.7533 191.471C98.6258 191.471 99.3317 191.233 99.8708 190.758C100.41 190.283 100.711 189.683 100.775 188.959H97.615V188.427H101.35Z" fill="white"/>
<path d="M103.327 191.364H106.839V191.896H102.763V184.448H103.327V191.364Z" fill="white"/>
<path d="M108.575 191.364H112.299V191.896H108.011V184.448H112.246V184.98H108.575V187.874H111.98V188.406H108.575V191.364Z" fill="white"/>
<path d="M119.054 184.448C119.721 184.448 120.275 184.668 120.714 185.107C121.154 185.547 121.374 186.097 121.374 186.757C121.374 187.417 121.154 187.966 120.714 188.406C120.275 188.839 119.721 189.055 119.054 189.055H117.086V191.896H116.522V184.448H119.054ZM119.054 188.523C119.565 188.523 119.984 188.356 120.31 188.023C120.643 187.69 120.81 187.268 120.81 186.757C120.81 186.239 120.643 185.813 120.31 185.48C119.984 185.146 119.565 184.98 119.054 184.98H117.086V188.523H119.054Z" fill="white"/>
<path d="M123.331 191.364H126.843V191.896H122.767V184.448H123.331V191.364Z" fill="white"/>
<path d="M133.235 191.896L132.511 190.002H128.776L128.052 191.896H127.457L130.351 184.448H130.947L133.831 191.896H133.235ZM128.989 189.47H132.309L130.649 185.139L128.989 189.47Z" fill="white"/>
<path d="M139.13 184.448L136.417 188.832V191.896H135.853V188.832L133.14 184.448H133.778L136.14 188.289L138.492 184.448H139.13Z" fill="white"/>
<rect x="163.231" y="159.974" width="133.012" height="46.5543" rx="23.2771" fill="#080809"/>
<path d="M192.213 191.893C189.046 191.874 186.426 185.409 186.426 182.116C186.426 176.737 190.461 175.559 192.016 175.559C192.717 175.559 193.465 175.835 194.125 176.078C194.587 176.248 195.064 176.423 195.33 176.423C195.488 176.423 195.863 176.274 196.194 176.143C196.899 175.863 197.776 175.514 198.798 175.514C198.8 175.514 198.802 175.514 198.804 175.514C199.567 175.514 201.88 175.681 203.271 177.77L203.596 178.259L203.127 178.613C202.458 179.118 201.236 180.04 201.236 181.866C201.236 184.029 202.62 184.861 203.285 185.261C203.578 185.437 203.882 185.619 203.882 186.017C203.882 186.277 201.807 191.86 198.793 191.86C198.056 191.86 197.535 191.639 197.075 191.443C196.61 191.245 196.209 191.075 195.546 191.075C195.21 191.075 194.785 191.234 194.335 191.402C193.72 191.632 193.024 191.893 192.234 191.893H192.213Z" fill="white"/>
<path d="M199.117 170.613C199.196 173.442 197.172 175.406 195.151 175.282C194.818 173.024 197.172 170.613 199.117 170.613Z" fill="white"/>
<path d="M215.146 177.265H216.542L214.643 171.679H213.015L211.115 177.265H212.512L212.791 176.388H214.866L215.146 177.265ZM213.174 175.19L213.829 173.139L214.483 175.19H213.174Z" fill="white"/>
<path d="M219.369 173.275L218.539 175.805L217.709 173.275H216.384L217.86 177.265H219.217L220.693 173.275H219.369Z" fill="white"/>
<path d="M223.874 173.275V173.65C223.61 173.347 223.219 173.163 222.685 173.163C221.639 173.163 220.777 174.081 220.777 175.27C220.777 176.459 221.639 177.377 222.685 177.377C223.219 177.377 223.61 177.194 223.874 176.89V177.265H225.071V173.275H223.874ZM222.924 176.244C222.373 176.244 221.974 175.869 221.974 175.27C221.974 174.672 222.373 174.297 222.924 174.297C223.475 174.297 223.874 174.672 223.874 175.27C223.874 175.869 223.475 176.244 222.924 176.244Z" fill="white"/>
<path d="M225.949 177.265H227.146V171.439H225.949V177.265Z" fill="white"/>
<path d="M228.621 172.924C229.012 172.924 229.339 172.597 229.339 172.206C229.339 171.815 229.012 171.487 228.621 171.487C228.23 171.487 227.903 171.815 227.903 172.206C227.903 172.597 228.23 172.924 228.621 172.924ZM228.022 177.265H229.219V173.275H228.022V177.265Z" fill="white"/>
<path d="M232.482 173.163C231.947 173.163 231.556 173.347 231.292 173.65V171.679H230.095V177.265H231.292V176.89C231.556 177.194 231.947 177.377 232.482 177.377C233.527 177.377 234.389 176.459 234.389 175.27C234.389 174.081 233.527 173.163 232.482 173.163ZM232.242 176.244C231.691 176.244 231.292 175.869 231.292 175.27C231.292 174.672 231.691 174.297 232.242 174.297C232.793 174.297 233.192 174.672 233.192 175.27C233.192 175.869 232.793 176.244 232.242 176.244Z" fill="white"/>
<path d="M235.068 177.265H236.265V171.439H235.068V177.265Z" fill="white"/>
<path d="M238.21 175.749H241.043C241.075 175.597 241.091 175.438 241.091 175.27C241.091 174.065 240.229 173.163 239.064 173.163C237.803 173.163 236.941 174.081 236.941 175.27C236.941 176.459 237.787 177.377 239.152 177.377C239.91 177.377 240.501 177.098 240.892 176.555L239.934 176.004C239.774 176.18 239.495 176.308 239.168 176.308C238.729 176.308 238.362 176.164 238.21 175.749ZM238.186 174.855C238.298 174.448 238.601 174.225 239.056 174.225C239.415 174.225 239.774 174.392 239.902 174.855H238.186Z" fill="white"/>
<path d="M245.681 177.377C246.854 177.377 247.796 176.459 247.796 175.27C247.796 174.081 246.854 173.163 245.681 173.163C244.508 173.163 243.566 174.081 243.566 175.27C243.566 176.459 244.508 177.377 245.681 177.377ZM245.681 176.212C245.162 176.212 244.763 175.837 244.763 175.27C244.763 174.704 245.162 174.328 245.681 174.328C246.2 174.328 246.599 174.704 246.599 175.27C246.599 175.837 246.2 176.212 245.681 176.212Z" fill="white"/>
<path d="M250.811 173.163C250.284 173.163 249.885 173.355 249.67 173.65V173.275H248.473V177.265H249.67V175.087C249.67 174.52 249.973 174.265 250.412 174.265C250.795 174.265 251.106 174.496 251.106 174.991V177.265H252.304V174.815C252.304 173.738 251.617 173.163 250.811 173.163Z" fill="white"/>
<path d="M257.459 174.424V173.275H256.637V172.158L255.44 172.517V173.275H254.802V174.424H255.44V175.837C255.44 176.954 255.895 177.425 257.459 177.265V176.18C256.932 176.212 256.637 176.18 256.637 175.837V174.424H257.459Z" fill="white"/>
<path d="M260.475 173.163C259.949 173.163 259.55 173.355 259.334 173.65V171.679H258.137V177.265H259.334V175.087C259.334 174.52 259.637 174.265 260.076 174.265C260.459 174.265 260.771 174.496 260.771 174.991V177.265H261.968V174.815C261.968 173.738 261.281 173.163 260.475 173.163Z" fill="white"/>
<path d="M263.859 175.749H266.692C266.724 175.597 266.74 175.438 266.74 175.27C266.74 174.065 265.878 173.163 264.713 173.163C263.452 173.163 262.59 174.081 262.59 175.27C262.59 176.459 263.436 177.377 264.801 177.377C265.559 177.377 266.15 177.098 266.541 176.555L265.583 176.004C265.423 176.18 265.144 176.308 264.817 176.308C264.378 176.308 264.011 176.164 263.859 175.749ZM263.835 174.855C263.947 174.448 264.25 174.225 264.705 174.225C265.064 174.225 265.423 174.392 265.551 174.855H263.835Z" fill="white"/>
<path d="M217.832 191.897H220.16L216.994 182.586H214.281L211.115 191.897H213.443L213.908 190.434H217.367L217.832 191.897ZM214.547 188.438L215.638 185.02L216.728 188.438H214.547Z" fill="white"/>
<path d="M224.865 185.06C223.973 185.06 223.322 185.366 222.883 185.871V185.246H220.887V194.557H222.883V191.272C223.322 191.777 223.973 192.083 224.865 192.083C226.607 192.083 228.044 190.553 228.044 188.571C228.044 186.59 226.607 185.06 224.865 185.06ZM224.465 190.194C223.548 190.194 222.883 189.569 222.883 188.571C222.883 187.574 223.548 186.949 224.465 186.949C225.383 186.949 226.048 187.574 226.048 188.571C226.048 189.569 225.383 190.194 224.465 190.194Z" fill="white"/>
<path d="M233.152 185.06C232.261 185.06 231.609 185.366 231.17 185.871V185.246H229.175V194.557H231.17V191.272C231.609 191.777 232.261 192.083 233.152 192.083C234.894 192.083 236.331 190.553 236.331 188.571C236.331 186.59 234.894 185.06 233.152 185.06ZM232.753 190.194C231.835 190.194 231.17 189.569 231.17 188.571C231.17 187.574 231.835 186.949 232.753 186.949C233.671 186.949 234.336 187.574 234.336 188.571C234.336 189.569 233.671 190.194 232.753 190.194Z" fill="white"/>
<path d="M237.462 191.897H239.457V182.187H237.462V191.897Z" fill="white"/>
<path d="M242.7 189.369H247.422C247.475 189.117 247.501 188.851 247.501 188.571C247.501 186.563 246.065 185.06 244.123 185.06C242.021 185.06 240.585 186.59 240.585 188.571C240.585 190.553 241.995 192.083 244.269 192.083C245.533 192.083 246.517 191.617 247.169 190.713L245.573 189.795C245.307 190.088 244.841 190.301 244.296 190.301C243.564 190.301 242.952 190.061 242.7 189.369ZM242.66 187.88C242.846 187.201 243.351 186.829 244.11 186.829C244.708 186.829 245.307 187.108 245.519 187.88H242.66Z" fill="white"/>
<path d="M255.284 192.083C257.305 192.083 258.742 191.019 258.742 189.223C258.742 187.255 257.159 186.762 255.749 186.337C254.299 185.898 254.073 185.605 254.073 185.18C254.073 184.807 254.406 184.475 255.071 184.475C255.922 184.475 256.361 184.887 256.68 185.552L258.476 184.501C257.798 183.131 256.6 182.4 255.071 182.4C253.461 182.4 251.945 183.437 251.945 185.233C251.945 187.015 253.302 187.68 254.685 188.066C256.082 188.452 256.614 188.678 256.614 189.25C256.614 189.609 256.361 190.008 255.35 190.008C254.299 190.008 253.727 189.489 253.395 188.718L251.559 189.782C252.078 191.152 253.328 192.083 255.284 192.083Z" fill="white"/>
<path d="M263.441 187.161V185.246H262.071V183.384L260.076 183.982V185.246H259.012V187.161H260.076V189.516C260.076 191.378 260.834 192.163 263.441 191.897V190.088C262.563 190.141 262.071 190.088 262.071 189.516V187.161H263.441Z" fill="white"/>
<path d="M267.633 192.083C269.589 192.083 271.158 190.553 271.158 188.571C271.158 186.59 269.589 185.06 267.633 185.06C265.678 185.06 264.109 186.59 264.109 188.571C264.109 190.553 265.678 192.083 267.633 192.083ZM267.633 190.141C266.769 190.141 266.104 189.516 266.104 188.571C266.104 187.627 266.769 187.002 267.633 187.002C268.498 187.002 269.163 187.627 269.163 188.571C269.163 189.516 268.498 190.141 267.633 190.141Z" fill="white"/>
<path d="M274.282 186.43V185.246H272.287V191.897H274.282V188.891C274.282 187.574 275.452 187.241 276.277 187.374V185.113C275.439 185.113 274.548 185.539 274.282 186.43Z" fill="white"/>
<path d="M278.797 189.369H283.519C283.572 189.117 283.599 188.851 283.599 188.571C283.599 186.563 282.163 185.06 280.221 185.06C278.119 185.06 276.682 186.59 276.682 188.571C276.682 190.553 278.092 192.083 280.367 192.083C281.63 192.083 282.615 191.617 283.267 190.713L281.67 189.795C281.404 190.088 280.939 190.301 280.393 190.301C279.662 190.301 279.05 190.061 278.797 189.369ZM278.757 187.88C278.944 187.201 279.449 186.829 280.207 186.829C280.806 186.829 281.404 187.108 281.617 187.88H278.757Z" fill="white"/>
<defs>
<filter id="filter0_d_0_281" x="181.853" y="3.02114" width="81.1375" height="81.1376" filterUnits="userSpaceOnUse" color-interpolation-filters="sRGB">
<feFlood flood-opacity="0" result="BackgroundImageFix"/>
<feColorMatrix in="SourceAlpha" type="matrix" values="0 0 0 0 0 0 0 0 0 0 0 0 0 0 0 0 0 0 127 0" result="hardAlpha"/>
<feOffset dy="2.66024"/>
<feGaussianBlur stdDeviation="6.65061"/>
<feColorMatrix type="matrix" values="0 0 0 0 0 0 0 0 0 0 0 0 0 0 0 0 0 0 0.1 0"/>
<feBlend mode="normal" in2="BackgroundImageFix" result="effect1_dropShadow_0_281"/>
<feBlend mode="normal" in="SourceGraphic" in2="effect1_dropShadow_0_281" result="shape"/>
</filter>
<filter id="filter1_d_0_281" x="0.956231" y="0.359028" width="81.1375" height="81.1376" filterUnits="userSpaceOnUse" color-interpolation-filters="sRGB">
<feFlood flood-opacity="0" result="BackgroundImageFix"/>
<feColorMatrix in="SourceAlpha" type="matrix" values="0 0 0 0 0 0 0 0 0 0 0 0 0 0 0 0 0 0 127 0" result="hardAlpha"/>
<feOffset dy="2.66024"/>
<feGaussianBlur stdDeviation="6.65061"/>
<feColorMatrix type="matrix" values="0 0 0 0 0 0 0 0 0 0 0 0 0 0 0 0 0 0 0.1 0"/>
<feBlend mode="normal" in2="BackgroundImageFix" result="effect1_dropShadow_0_281"/>
<feBlend mode="normal" in="SourceGraphic" in2="effect1_dropShadow_0_281" result="shape"/>
</filter>
<filter id="filter2_d_0_281" x="88.7442" y="0.359028" width="86.4579" height="86.4579" filterUnits="userSpaceOnUse" color-interpolation-filters="sRGB">
<feFlood flood-opacity="0" result="BackgroundImageFix"/>
<feColorMatrix in="SourceAlpha" type="matrix" values="0 0 0 0 0 0 0 0 0 0 0 0 0 0 0 0 0 0 127 0" result="hardAlpha"/>
<feOffset dy="2.66024"/>
<feGaussianBlur stdDeviation="6.65061"/>
<feColorMatrix type="matrix" values="0 0 0 0 0 0 0 0 0 0 0 0 0 0 0 0 0 0 0.1 0"/>
<feBlend mode="normal" in2="BackgroundImageFix" result="effect1_dropShadow_0_281"/>
<feBlend mode="normal" in="SourceGraphic" in2="effect1_dropShadow_0_281" result="shape"/>
</filter>
<radialGradient id="paint0_angular_0_281" cx="0" cy="0" r="1" gradientUnits="userSpaceOnUse" gradientTransform="translate(131.973 40.9277) rotate(90) scale(0.665061)">
<stop stop-color="#B8D2F1"/>
<stop offset="0.166667" stop-color="#F289AA"/>
<stop offset="0.294697" stop-color="#C68BF0"/>
<stop offset="0.427083" stop-color="#D164DA"/>
<stop offset="0.614583" stop-color="#C963E8"/>
<stop offset="0.71875" stop-color="#BFC2E8"/>
<stop offset="0.802083" stop-color="#FFC999"/>
<stop offset="0.875" stop-color="#D0D8C9"/>
<stop offset="0.928149" stop-color="#BAD0F1"/>
<stop offset="0.997133" stop-color="#CED8CB"/>
<stop offset="1" stop-color="white" stop-opacity="0"/>
</radialGradient>
<clipPath id="clip0_0_281">
<rect width="21.2819" height="21.2819" fill="white" transform="translate(121.997 29.6216)"/>
</clipPath>
<clipPath id="clip1_0_281">
<rect width="26.6024" height="26.6024" fill="white" transform="translate(34.2094 169.285)"/>
</clipPath>
</defs>
</svg>
