<svg width="396" height="434" viewBox="0 0 396 434" fill="none" xmlns="http://www.w3.org/2000/svg">
<path d="M215.279 235.588C213.672 236.168 212.09 237.043 210.63 238.156C206.83 240.999 204.509 244.61 205.446 246.221C206.383 247.831 210.223 246.832 214.023 243.989C215.5 242.904 216.831 241.599 217.935 240.153C218.449 239.457 218.579 238.664 218.267 238.13L217.049 236.037C216.74 235.501 216.045 235.325 215.279 235.588Z" fill="#D5D6DB"/>
<path d="M205.946 201.762C204.781 202.183 203.633 202.817 202.575 203.624C199.82 205.685 198.136 208.304 198.815 209.471C199.494 210.638 202.28 209.912 205.034 207.851C206.105 207.065 207.07 206.118 207.871 205.07C208.243 204.565 208.337 203.991 208.11 203.603L207.229 202.088C207.005 201.7 206.502 201.571 205.946 201.762Z" fill="#D5D6DB"/>
<path d="M190.947 205.033C190.692 205.041 190.415 205.149 190.169 205.333L183.689 210.196C183.147 210.602 182.902 211.268 183.141 211.684C183.196 211.779 183.274 211.856 183.371 211.91L198.202 220.232L219.81 204.017L190.947 205.033Z" fill="#029BC5"/>
<path d="M256.747 198.434L199.311 238.5L165.755 255.121L148.828 260.492L147.161 257.826L242.835 192.085C245.686 190.119 248.815 188.725 251.905 188.045C253.258 187.754 254.585 187.616 255.856 187.632C256.982 187.639 258.042 187.802 259.002 188.118C260.074 188.478 262.168 188.252 262.787 189.175C262.789 189.173 264.113 193.614 256.747 198.434Z" fill="#E1E6E9"/>
<path d="M201.248 236.659L174.882 277.061C174.549 277.623 174.695 278.181 175.207 278.306C175.521 278.383 175.917 278.28 176.259 278.032L182.64 273.422C183.867 272.535 184.97 271.472 185.881 270.298L235.917 210.794L201.248 236.659Z" fill="#029BC5"/>
<path d="M138.809 234.859C138.404 234.778 137.908 234.924 137.478 235.251L132.078 239.363C131.342 239.923 131.011 240.841 131.337 241.413C131.399 241.522 131.483 241.614 131.585 241.684L145.542 251.331L161.437 239.408L138.809 234.859Z" fill="#029BC5"/>
<path d="M151.213 254.67L142.944 265.986C142.823 266.149 142.839 266.33 142.979 266.39C143.08 266.434 143.224 266.404 143.344 266.313L148.265 262.779C148.303 262.751 148.338 262.719 148.368 262.683L160.334 248.124L151.213 254.67Z" fill="#029BC5"/>
<path d="M254.38 188.932C253.049 188.912 251.658 189.066 250.24 189.389C248.759 191.469 247.761 193.711 247.344 195.891C247.298 196.324 247.634 196.583 248.093 196.469C248.236 196.434 248.381 196.365 248.512 196.268L257.678 189.475C256.671 189.123 255.561 188.94 254.38 188.932Z" fill="#029BC5"/>
<path d="M234.85 201.182L241.051 196.365L246.102 205.343L239.9 210.159L234.85 201.182Z" fill="#D5D6DB"/>
<path d="M231.259 204.385C230.516 204.963 230.178 205.902 230.505 206.481L231.035 207.42C231.387 207.979 232.267 207.948 232.999 207.35C233.696 206.781 234.015 205.897 233.727 205.326L233.197 204.388C232.87 203.809 232.003 203.807 231.259 204.385Z" fill="#3A556A"/>
<path d="M226.023 207.859C225.28 208.437 224.942 209.376 225.269 209.955L225.799 210.894C226.152 211.453 227.031 211.422 227.763 210.824C228.46 210.255 228.779 209.371 228.492 208.8L227.961 207.862C227.634 207.283 226.767 207.282 226.023 207.859Z" fill="#3A556A"/>
<path d="M220.786 211.337C220.043 211.916 219.706 212.853 220.033 213.432L220.563 214.371C220.915 214.93 221.794 214.899 222.527 214.301C223.224 213.732 223.543 212.848 223.255 212.278L222.725 211.339C222.398 210.76 221.529 210.759 220.786 211.337Z" fill="#3A556A"/>
<path d="M215.55 214.81C214.807 215.388 214.47 216.326 214.797 216.905L215.327 217.843C215.679 218.403 216.558 218.372 217.291 217.774C217.988 217.205 218.307 216.32 218.019 215.75L217.489 214.811C217.161 214.232 216.293 214.232 215.55 214.81Z" fill="#3A556A"/>
<path d="M210.315 218.287C209.571 218.866 209.234 219.805 209.561 220.384L210.092 221.324C210.419 221.904 211.287 221.904 212.031 221.326C212.775 220.747 213.112 219.809 212.785 219.229L212.254 218.29C211.928 217.71 211.06 217.708 210.316 218.286C210.316 218.286 210.315 218.286 210.315 218.287Z" fill="#3A556A"/>
<path d="M205.079 221.76C204.335 222.34 203.998 223.278 204.325 223.858L204.856 224.798C205.183 225.377 206.052 225.378 206.795 224.799C207.539 224.221 207.877 223.282 207.549 222.703L207.019 221.763C206.692 221.183 205.825 221.181 205.08 221.759C205.08 221.759 205.079 221.76 205.079 221.76Z" fill="#3A556A"/>
<path d="M199.842 225.237C199.099 225.816 198.762 226.755 199.089 227.334L199.62 228.274C199.948 228.853 200.816 228.852 201.559 228.273C202.301 227.695 202.638 226.758 202.313 226.179L201.782 225.24C201.455 224.66 200.587 224.658 199.842 225.237Z" fill="#3A556A"/>
<path d="M194.606 228.711C193.862 229.29 193.525 230.229 193.853 230.808L194.383 231.748C194.711 232.327 195.58 232.326 196.323 231.747C197.065 231.169 197.402 230.232 197.076 229.653L196.545 228.714C196.218 228.134 195.35 228.132 194.606 228.711Z" fill="#3A556A"/>
<path d="M189.37 232.186C188.626 232.765 188.289 233.704 188.617 234.283L189.147 235.223C189.476 235.802 190.344 235.801 191.087 235.222C191.829 234.644 192.166 233.707 191.84 233.128L191.31 232.189C190.982 231.609 190.114 231.608 189.37 232.186Z" fill="#3A556A"/>
<path d="M184.132 235.662C183.389 236.241 183.051 237.179 183.378 237.758L183.379 237.76L183.91 238.7C184.238 239.278 185.107 239.277 185.85 238.698C186.591 238.12 186.928 237.184 186.603 236.605L186.072 235.665C185.745 235.085 184.877 235.084 184.132 235.662Z" fill="#3A556A"/>
<path d="M178.898 239.135C178.154 239.714 177.816 240.652 178.144 241.232L178.144 241.233L178.675 242.173C179.003 242.751 179.872 242.751 180.615 242.172C181.357 241.594 181.694 240.657 181.368 240.078L180.837 239.138C180.51 238.559 179.642 238.557 178.898 239.135Z" fill="#3A556A"/>
</svg>
