<svg width="53" height="51" viewBox="0 0 53 51" fill="none" xmlns="http://www.w3.org/2000/svg">
<path d="M44.1034 15.692C44.9014 17.0741 44.7944 18.7199 43.8232 19.9866L22.4995 47.8127C21.62 48.9601 20.1721 49.5451 18.6914 49.2609C17.2415 48.9821 16.0918 47.9251 15.6929 46.5036L12.5377 35.2742L12.2091 34.1062L11.3618 33.2376L3.21452 24.8905C2.18291 23.8342 1.84241 22.3101 2.32588 20.915C2.80438 19.5359 4.00449 18.5352 5.48414 18.3412L40.2441 13.7874C41.8267 13.5796 43.3055 14.3099 44.1034 15.692Z" fill="white"/>
<path d="M12.5378 35.2734L15.6929 46.5028C16.0919 47.9244 17.2415 48.9812 18.6915 49.2601C20.1722 49.5444 21.6201 48.9594 22.4995 47.8119L43.8232 19.9858C44.7945 18.7191 44.9014 17.0733 44.1035 15.6912L12.2092 34.1053L12.5378 35.2734Z" fill="white"/>
<path d="M25.1882 26.6115C25.5127 27.1736 25.3206 27.8928 24.7578 28.2178L12.5379 35.2729L12.2093 34.1049L11.3621 33.2363L23.582 26.1812C24.1447 25.8563 24.8637 26.0495 25.1882 26.6115Z" fill="url(#paint0_linear_0_350)"/>
<path d="M12.5377 35.2737L24.7576 28.2185C25.3204 27.8936 25.5126 27.1744 25.188 26.6123L12.2091 34.1057L12.5377 35.2737Z" fill="url(#paint1_linear_0_350)"/>
<defs>
<linearGradient id="paint0_linear_0_350" x1="20.7841" y1="27.8727" x2="22.0972" y2="30.5056" gradientUnits="userSpaceOnUse">
<stop stop-color="#747DEF"/>
<stop offset="1" stop-color="#5E3BE1"/>
</linearGradient>
<linearGradient id="paint1_linear_0_350" x1="21.3554" y1="28.8632" x2="22.0527" y2="30.1608" gradientUnits="userSpaceOnUse">
<stop stop-color="#747DEF"/>
<stop offset="1" stop-color="#5E3BE1"/>
</linearGradient>
</defs>
</svg>
